REM GoldWave
FILE "Зазнобин В.М. Беседы по теории суперсистем, часть 2 (июнь 2006 г.).m4a" BINARY
  TRACK 01 AUDIO
    TITLE "00:00:00.00000"
    PERFORMER "Владимир Михайлович Зазнобин. Видеоархив"
    INDEX 01 00:00:00
  TRACK 02 AUDIO
    TITLE "00:00:15.05574"
    PERFORMER "Владимир Михайлович Зазнобин. Видеоархив"
    INDEX 01 00:15:04
  TRACK 03 AUDIO
    TITLE "00:00:29.75900"
    PERFORMER "Владимир Михайлович Зазнобин. Видеоархив"
    INDEX 01 00:29:57
  TRACK 04 AUDIO
    TITLE "00:00:44.63224"
    PERFORMER "Владимир Михайлович Зазнобин. Видеоархив"
    INDEX 01 00:44:47
  TRACK 05 AUDIO
    TITLE "00:00:58.41878"
    PERFORMER "Владимир Михайлович Зазнобин. Видеоархив"
    INDEX 01 00:58:31
  TRACK 06 AUDIO
    TITLE "00:01:11.45113"
    PERFORMER "Владимир Михайлович Зазнобин. Видеоархив"
    INDEX 01 01:11:34
  TRACK 07 AUDIO
    TITLE "00:01:24.52159"
    PERFORMER "Владимир Михайлович Зазнобин. Видеоархив"
    INDEX 01 01:24:39
  TRACK 08 AUDIO
    TITLE "00:01:43.60971"
    PERFORMER "Владимир Михайлович Зазнобин. Видеоархив"
    INDEX 01 01:43:46
  TRACK 09 AUDIO
    TITLE "00:01:57.46265"
    PERFORMER "Владимир Михайлович Зазнобин. Видеоархив"
    INDEX 01 01:57:35
  TRACK 10 AUDIO
    TITLE "00:02:10.76717"
    PERFORMER "Владимир Михайлович Зазнобин. Видеоархив"
    INDEX 01 02:10:58
  TRACK 11 AUDIO
    TITLE "00:02:24.44549"
    PERFORMER "Владимир Михайлович Зазнобин. Видеоархив"
    INDEX 01 02:24:33
  TRACK 12 AUDIO
    TITLE "00:02:38.32537"
    PERFORMER "Владимир Михайлович Зазнобин. Видеоархив"
    INDEX 01 02:38:24
  TRACK 13 AUDIO
    TITLE "00:02:54.60204"
    PERFORMER "Владимир Михайлович Зазнобин. Видеоархив"
    INDEX 01 02:54:45
  TRACK 14 AUDIO
    TITLE "00:03:08.17215"
    PERFORMER "Владимир Михайлович Зазнобин. Видеоархив"
    INDEX 01 03:08:13
  TRACK 15 AUDIO
    TITLE "00:03:22.73844"
    PERFORMER "Владимир Михайлович Зазнобин. Видеоархив"
    INDEX 01 03:22:55
  TRACK 16 AUDIO
    TITLE "00:03:38.69234"
    PERFORMER "Владимир Михайлович Зазнобин. Видеоархив"
    INDEX 01 03:38:52
  TRACK 17 AUDIO
    TITLE "00:03:53.19265"
    PERFORMER "Владимир Михайлович Зазнобин. Видеоархив"
    INDEX 01 03:53:14
  TRACK 18 AUDIO
    TITLE "00:04:07.03492"
    PERFORMER "Владимир Михайлович Зазнобин. Видеоархив"
    INDEX 01 04:07:03
  TRACK 19 AUDIO
    TITLE "00:04:20.75088"
    PERFORMER "Владимир Михайлович Зазнобин. Видеоархив"
    INDEX 01 04:20:56
  TRACK 20 AUDIO
    TITLE "00:04:33.82782"
    PERFORMER "Владимир Михайлович Зазнобин. Видеоархив"
    INDEX 01 04:33:62
  TRACK 21 AUDIO
    TITLE "00:04:49.29177"
    PERFORMER "Владимир Михайлович Зазнобин. Видеоархив"
    INDEX 01 04:49:22
  TRACK 22 AUDIO
    TITLE "00:05:03.41873"
    PERFORMER "Владимир Михайлович Зазнобин. Видеоархив"
    INDEX 01 05:03:31
  TRACK 23 AUDIO
    TITLE "00:05:18.98762"
    PERFORMER "Владимир Михайлович Зазнобин. Видеоархив"
    INDEX 01 05:18:74
  TRACK 24 AUDIO
    TITLE "00:05:33.93424"
    PERFORMER "Владимир Михайлович Зазнобин. Видеоархив"
    INDEX 01 05:33:70
  TRACK 25 AUDIO
    TITLE "00:05:51.42855"
    PERFORMER "Владимир Михайлович Зазнобин. Видеоархив"
    INDEX 01 05:51:32
  TRACK 26 AUDIO
    TITLE "00:06:04.42143"
    PERFORMER "Владимир Михайлович Зазнобин. Видеоархив"
    INDEX 01 06:04:32
  TRACK 27 AUDIO
    TITLE "00:06:19.72100"
    PERFORMER "Владимир Михайлович Зазнобин. Видеоархив"
    INDEX 01 06:19:54
  TRACK 28 AUDIO
    TITLE "00:06:34.13215"
    PERFORMER "Владимир Михайлович Зазнобин. Видеоархив"
    INDEX 01 06:34:10
  TRACK 29 AUDIO
    TITLE "00:06:48.14857"
    PERFORMER "Владимир Михайлович Зазнобин. Видеоархив"
    INDEX 01 06:48:11
  TRACK 30 AUDIO
    TITLE "00:07:02.56297"
    PERFORMER "Владимир Михайлович Зазнобин. Видеоархив"
    INDEX 01 07:02:42
  TRACK 31 AUDIO
    TITLE "00:07:16.43637"
    PERFORMER "Владимир Михайлович Зазнобин. Видеоархив"
    INDEX 01 07:16:33
  TRACK 32 AUDIO
    TITLE "00:07:29.36703"
    PERFORMER "Владимир Михайлович Зазнобин. Видеоархив"
    INDEX 01 07:29:28
  TRACK 33 AUDIO
    TITLE "00:07:47.31782"
    PERFORMER "Владимир Михайлович Зазнобин. Видеоархив"
    INDEX 01 07:47:24
  TRACK 34 AUDIO
    TITLE "00:08:04.84882"
    PERFORMER "Владимир Михайлович Зазнобин. Видеоархив"
    INDEX 01 08:04:64
  TRACK 35 AUDIO
    TITLE "00:08:20.75907"
    PERFORMER "Владимир Михайлович Зазнобин. Видеоархив"
    INDEX 01 08:20:57
  TRACK 36 AUDIO
    TITLE "00:08:37.61853"
    PERFORMER "Владимир Михайлович Зазнобин. Видеоархив"
    INDEX 01 08:37:46
  TRACK 37 AUDIO
    TITLE "00:08:53.24642"
    PERFORMER "Владимир Михайлович Зазнобин. Видеоархив"
    INDEX 01 08:53:18
  TRACK 38 AUDIO
    TITLE "00:09:06.77429"
    PERFORMER "Владимир Михайлович Зазнобин. Видеоархив"
    INDEX 01 09:06:58
  TRACK 39 AUDIO
    TITLE "00:09:20.23807"
    PERFORMER "Владимир Михайлович Зазнобин. Видеоархив"
    INDEX 01 09:20:18
  TRACK 40 AUDIO
    TITLE "00:09:36.61968"
    PERFORMER "Владимир Михайлович Зазнобин. Видеоархив"
    INDEX 01 09:36:46
  TRACK 41 AUDIO
    TITLE "00:09:53.51771"
    PERFORMER "Владимир Михайлович Зазнобин. Видеоархив"
    INDEX 01 09:53:39
  TRACK 42 AUDIO
    TITLE "00:10:08.47871"
    PERFORMER "Владимир Михайлович Зазнобин. Видеоархив"
    INDEX 01 10:08:36
  TRACK 43 AUDIO
    TITLE "00:10:22.54156"
    PERFORMER "Владимир Михайлович Зазнобин. Видеоархив"
    INDEX 01 10:22:41
  TRACK 44 AUDIO
    TITLE "00:10:36.69127"
    PERFORMER "Владимир Михайлович Зазнобин. Видеоархив"
    INDEX 01 10:36:52
  TRACK 45 AUDIO
    TITLE "00:10:52.21605"
    PERFORMER "Владимир Михайлович Зазнобин. Видеоархив"
    INDEX 01 10:52:16
  TRACK 46 AUDIO
    TITLE "00:11:06.29333"
    PERFORMER "Владимир Михайлович Зазнобин. Видеоархив"
    INDEX 01 11:06:22
  TRACK 47 AUDIO
    TITLE "00:11:20.32739"
    PERFORMER "Владимир Михайлович Зазнобин. Видеоархив"
    INDEX 01 11:20:25
  TRACK 48 AUDIO
    TITLE "00:11:33.24041"
    PERFORMER "Владимир Михайлович Зазнобин. Видеоархив"
    INDEX 01 11:33:18
  TRACK 49 AUDIO
    TITLE "00:11:47.64737"
    PERFORMER "Владимир Михайлович Зазнобин. Видеоархив"
    INDEX 01 11:47:49
  TRACK 50 AUDIO
    TITLE "00:12:03.05887"
    PERFORMER "Владимир Михайлович Зазнобин. Видеоархив"
    INDEX 01 12:03:04
  TRACK 51 AUDIO
    TITLE "00:12:19.23195"
    PERFORMER "Владимир Михайлович Зазнобин. Видеоархив"
    INDEX 01 12:19:17
  TRACK 52 AUDIO
    TITLE "00:12:32.11617"
    PERFORMER "Владимир Михайлович Зазнобин. Видеоархив"
    INDEX 01 12:32:09
  TRACK 53 AUDIO
    TITLE "00:12:46.05828"
    PERFORMER "Владимир Михайлович Зазнобин. Видеоархив"
    INDEX 01 12:46:04
  TRACK 54 AUDIO
    TITLE "00:13:00.76340"
    PERFORMER "Владимир Михайлович Зазнобин. Видеоархив"
    INDEX 01 13:00:57
  TRACK 55 AUDIO
    TITLE "00:13:16.27240"
    PERFORMER "Владимир Михайлович Зазнобин. Видеоархив"
    INDEX 01 13:16:20
  TRACK 56 AUDIO
    TITLE "00:13:29.59456"
    PERFORMER "Владимир Михайлович Зазнобин. Видеоархив"
    INDEX 01 13:29:45
  TRACK 57 AUDIO
    TITLE "00:13:42.91018"
    PERFORMER "Владимир Михайлович Зазнобин. Видеоархив"
    INDEX 01 13:42:68
  TRACK 58 AUDIO
    TITLE "00:13:56.01825"
    PERFORMER "Владимир Михайлович Зазнобин. Видеоархив"
    INDEX 01 13:56:01
  TRACK 59 AUDIO
    TITLE "00:14:11.02383"
    PERFORMER "Владимир Михайлович Зазнобин. Видеоархив"
    INDEX 01 14:11:02
  TRACK 60 AUDIO
    TITLE "00:14:24.66456"
    PERFORMER "Владимир Михайлович Зазнобин. Видеоархив"
    INDEX 01 14:24:50
  TRACK 61 AUDIO
    TITLE "00:14:40.34447"
    PERFORMER "Владимир Михайлович Зазнобин. Видеоархив"
    INDEX 01 14:40:26
  TRACK 62 AUDIO
    TITLE "00:14:54.37016"
    PERFORMER "Владимир Михайлович Зазнобин. Видеоархив"
    INDEX 01 14:54:28
  TRACK 63 AUDIO
    TITLE "00:15:07.81630"
    PERFORMER "Владимир Михайлович Зазнобин. Видеоархив"
    INDEX 01 15:07:61
  TRACK 64 AUDIO
    TITLE "00:15:22.43272"
    PERFORMER "Владимир Михайлович Зазнобин. Видеоархив"
    INDEX 01 15:22:32
  TRACK 65 AUDIO
    TITLE "00:15:36.51370"
    PERFORMER "Владимир Михайлович Зазнобин. Видеоархив"
    INDEX 01 15:36:39
  TRACK 66 AUDIO
    TITLE "00:15:51.04095"
    PERFORMER "Владимир Михайлович Зазнобин. Видеоархив"
    INDEX 01 15:51:03
  TRACK 67 AUDIO
    TITLE "00:16:07.04687"
    PERFORMER "Владимир Михайлович Зазнобин. Видеоархив"
    INDEX 01 16:07:04
  TRACK 68 AUDIO
    TITLE "00:16:23.91562"
    PERFORMER "Владимир Михайлович Зазнобин. Видеоархив"
    INDEX 01 16:23:69
  TRACK 69 AUDIO
    TITLE "00:16:39.13578"
    PERFORMER "Владимир Михайлович Зазнобин. Видеоархив"
    INDEX 01 16:39:10
  TRACK 70 AUDIO
    TITLE "00:16:52.71426"
    PERFORMER "Владимир Михайлович Зазнобин. Видеоархив"
    INDEX 01 16:52:54
  TRACK 71 AUDIO
    TITLE "00:17:06.99213"
    PERFORMER "Владимир Михайлович Зазнобин. Видеоархив"
    INDEX 01 17:06:74
  TRACK 72 AUDIO
    TITLE "00:17:21.29231"
    PERFORMER "Владимир Михайлович Зазнобин. Видеоархив"
    INDEX 01 17:21:22
  TRACK 73 AUDIO
    TITLE "00:17:34.73147"
    PERFORMER "Владимир Михайлович Зазнобин. Видеоархив"
    INDEX 01 17:34:55
  TRACK 74 AUDIO
    TITLE "00:17:54.96063"
    PERFORMER "Владимир Михайлович Зазнобин. Видеоархив"
    INDEX 01 17:54:72
  TRACK 75 AUDIO
    TITLE "00:18:09.27333"
    PERFORMER "Владимир Михайлович Зазнобин. Видеоархив"
    INDEX 01 18:09:20
  TRACK 76 AUDIO
    TITLE "00:18:23.01624"
    PERFORMER "Владимир Михайлович Зазнобин. Видеоархив"
    INDEX 01 18:23:01
  TRACK 77 AUDIO
    TITLE "00:18:36.01748"
    PERFORMER "Владимир Михайлович Зазнобин. Видеоархив"
    INDEX 01 18:36:01
  TRACK 78 AUDIO
    TITLE "00:18:49.02383"
    PERFORMER "Владимир Михайлович Зазнобин. Видеоархив"
    INDEX 01 18:49:02
  TRACK 79 AUDIO
    TITLE "00:19:02.95712"
    PERFORMER "Владимир Михайлович Зазнобин. Видеоархив"
    INDEX 01 19:02:72
  TRACK 80 AUDIO
    TITLE "00:19:16.94243"
    PERFORMER "Владимир Михайлович Зазнобин. Видеоархив"
    INDEX 01 19:16:71
  TRACK 81 AUDIO
    TITLE "00:19:30.65839"
    PERFORMER "Владимир Михайлович Зазнобин. Видеоархив"
    INDEX 01 19:30:49
  TRACK 82 AUDIO
    TITLE "00:19:46.33549"
    PERFORMER "Владимир Михайлович Зазнобин. Видеоархив"
    INDEX 01 19:46:25
  TRACK 83 AUDIO
    TITLE "00:20:03.33939"
    PERFORMER "Владимир Михайлович Зазнобин. Видеоархив"
    INDEX 01 20:03:25
  TRACK 84 AUDIO
    TITLE "00:20:16.70054"
    PERFORMER "Владимир Михайлович Зазнобин. Видеоархив"
    INDEX 01 20:16:53
  TRACK 85 AUDIO
    TITLE "00:20:29.93027"
    PERFORMER "Владимир Михайлович Зазнобин. Видеоархив"
    INDEX 01 20:29:70
  TRACK 86 AUDIO
    TITLE "00:20:42.96728"
    PERFORMER "Владимир Михайлович Зазнобин. Видеоархив"
    INDEX 01 20:42:73
  TRACK 87 AUDIO
    TITLE "00:20:58.50460"
    PERFORMER "Владимир Михайлович Зазнобин. Видеоархив"
    INDEX 01 20:58:38
  TRACK 88 AUDIO
    TITLE "00:21:17.93034"
    PERFORMER "Владимир Михайлович Зазнобин. Видеоархив"
    INDEX 01 21:17:70
  TRACK 89 AUDIO
    TITLE "00:21:32.82401"
    PERFORMER "Владимир Михайлович Зазнобин. Видеоархив"
    INDEX 01 21:32:62
  TRACK 90 AUDIO
    TITLE "00:21:46.00730"
    PERFORMER "Владимир Михайлович Зазнобин. Видеоархив"
    INDEX 01 21:46:01
  TRACK 91 AUDIO
    TITLE "00:22:00.56662"
    PERFORMER "Владимир Михайлович Зазнобин. Видеоархив"
    INDEX 01 22:00:42
  TRACK 92 AUDIO
    TITLE "00:22:14.31973"
    PERFORMER "Владимир Михайлович Зазнобин. Видеоархив"
    INDEX 01 22:14:24
  TRACK 93 AUDIO
    TITLE "00:22:27.28798"
    PERFORMER "Владимир Михайлович Зазнобин. Видеоархив"
    INDEX 01 22:27:22
  TRACK 94 AUDIO
    TITLE "00:22:43.77642"
    PERFORMER "Владимир Михайлович Зазнобин. Видеоархив"
    INDEX 01 22:43:58
  TRACK 95 AUDIO
    TITLE "00:22:58.44438"
    PERFORMER "Владимир Михайлович Зазнобин. Видеоархив"
    INDEX 01 22:58:33
  TRACK 96 AUDIO
    TITLE "00:23:12.01451"
    PERFORMER "Владимир Михайлович Зазнобин. Видеоархив"
    INDEX 01 23:12:01
  TRACK 97 AUDIO
    TITLE "00:23:25.93388"
    PERFORMER "Владимир Михайлович Зазнобин. Видеоархив"
    INDEX 01 23:25:70
  TRACK 98 AUDIO
    TITLE "00:23:40.71610"
    PERFORMER "Владимир Михайлович Зазнобин. Видеоархив"
    INDEX 01 23:40:54
  TRACK 99 AUDIO
    TITLE "00:23:54.20404"
    PERFORMER "Владимир Михайлович Зазнобин. Видеоархив"
    INDEX 01 23:54:15
  TRACK 100 AUDIO
    TITLE "00:24:07.10635"
    PERFORMER "Владимир Михайлович Зазнобин. Видеоархив"
    INDEX 01 24:07:08
  TRACK 101 AUDIO
    TITLE "00:24:22.90002"
    PERFORMER "Владимир Михайлович Зазнобин. Видеоархив"
    INDEX 01 24:22:68
  TRACK 102 AUDIO
    TITLE "00:24:38.55578"
    PERFORMER "Владимир Михайлович Зазнобин. Видеоархив"
    INDEX 01 24:38:42
  TRACK 103 AUDIO
    TITLE "00:24:54.54311"
    PERFORMER "Владимир Михайлович Зазнобин. Видеоархив"
    INDEX 01 24:54:41
  TRACK 104 AUDIO
    TITLE "00:25:11.65476"
    PERFORMER "Владимир Михайлович Зазнобин. Видеоархив"
    INDEX 01 25:11:49
  TRACK 105 AUDIO
    TITLE "00:25:27.12707"
    PERFORMER "Владимир Михайлович Зазнобин. Видеоархив"
    INDEX 01 25:27:10
  TRACK 106 AUDIO
    TITLE "00:25:40.17893"
    PERFORMER "Владимир Михайлович Зазнобин. Видеоархив"
    INDEX 01 25:40:13
  TRACK 107 AUDIO
    TITLE "00:25:53.36222"
    PERFORMER "Владимир Михайлович Зазнобин. Видеоархив"
    INDEX 01 25:53:27
  TRACK 108 AUDIO
    TITLE "00:26:08.69615"
    PERFORMER "Владимир Михайлович Зазнобин. Видеоархив"
    INDEX 01 26:08:52
  TRACK 109 AUDIO
    TITLE "00:26:25.08889"
    PERFORMER "Владимир Михайлович Зазнобин. Видеоархив"
    INDEX 01 26:25:07
  TRACK 110 AUDIO
    TITLE "00:26:42.23490"
    PERFORMER "Владимир Михайлович Зазнобин. Видеоархив"
    INDEX 01 26:42:18
  TRACK 111 AUDIO
    TITLE "00:26:56.54853"
    PERFORMER "Владимир Михайлович Зазнобин. Видеоархив"
    INDEX 01 26:56:41
  TRACK 112 AUDIO
    TITLE "00:27:13.74934"
    PERFORMER "Владимир Михайлович Зазнобин. Видеоархив"
    INDEX 01 27:13:56
  TRACK 113 AUDIO
    TITLE "00:27:26.67580"
    PERFORMER "Владимир Михайлович Зазнобин. Видеоархив"
    INDEX 01 27:26:51
  TRACK 114 AUDIO
    TITLE "00:27:44.27601"
    PERFORMER "Владимир Михайлович Зазнобин. Видеоархив"
    INDEX 01 27:44:21
  TRACK 115 AUDIO
    TITLE "00:27:59.62571"
    PERFORMER "Владимир Михайлович Зазнобин. Видеоархив"
    INDEX 01 27:59:47
  TRACK 116 AUDIO
    TITLE "00:28:13.21580"
    PERFORMER "Владимир Михайлович Зазнобин. Видеоархив"
    INDEX 01 28:13:16
  TRACK 117 AUDIO
    TITLE "00:28:26.68844"
    PERFORMER "Владимир Михайлович Зазнобин. Видеоархив"
    INDEX 01 28:26:52
  TRACK 118 AUDIO
    TITLE "00:28:40.64819"
    PERFORMER "Владимир Михайлович Зазнобин. Видеоархив"
    INDEX 01 28:40:49
  TRACK 119 AUDIO
    TITLE "00:28:55.76245"
    PERFORMER "Владимир Михайлович Зазнобин. Видеоархив"
    INDEX 01 28:55:57
  TRACK 120 AUDIO
    TITLE "00:29:11.48646"
    PERFORMER "Владимир Михайлович Зазнобин. Видеоархив"
    INDEX 01 29:11:36
  TRACK 121 AUDIO
    TITLE "00:29:24.82764"
    PERFORMER "Владимир Михайлович Зазнобин. Видеоархив"
    INDEX 01 29:24:62
  TRACK 122 AUDIO
    TITLE "00:29:38.53757"
    PERFORMER "Владимир Михайлович Зазнобин. Видеоархив"
    INDEX 01 29:38:40
  TRACK 123 AUDIO
    TITLE "00:29:51.99020"
    PERFORMER "Владимир Михайлович Зазнобин. Видеоархив"
    INDEX 01 29:51:74
  TRACK 124 AUDIO
    TITLE "00:30:08.72662"
    PERFORMER "Владимир Михайлович Зазнобин. Видеоархив"
    INDEX 01 30:08:54
  TRACK 125 AUDIO
    TITLE "00:30:24.49381"
    PERFORMER "Владимир Михайлович Зазнобин. Видеоархив"
    INDEX 01 30:24:37
  TRACK 126 AUDIO
    TITLE "00:30:40.88565"
    PERFORMER "Владимир Михайлович Зазнобин. Видеоархив"
    INDEX 01 30:40:66
  TRACK 127 AUDIO
    TITLE "00:30:55.20020"
    PERFORMER "Владимир Михайлович Зазнобин. Видеоархив"
    INDEX 01 30:55:15
  TRACK 128 AUDIO
    TITLE "00:31:09.02066"
    PERFORMER "Владимир Михайлович Зазнобин. Видеоархив"
    INDEX 01 31:09:02
  TRACK 129 AUDIO
    TITLE "00:31:23.32222"
    PERFORMER "Владимир Михайлович Зазнобин. Видеоархив"
    INDEX 01 31:23:24
  TRACK 130 AUDIO
    TITLE "00:31:38.24608"
    PERFORMER "Владимир Михайлович Зазнобин. Видеоархив"
    INDEX 01 31:38:18
  TRACK 131 AUDIO
    TITLE "00:31:53.25862"
    PERFORMER "Владимир Михайлович Зазнобин. Видеоархив"
    INDEX 01 31:53:19
  TRACK 132 AUDIO
    TITLE "00:32:07.40508"
    PERFORMER "Владимир Михайлович Зазнобин. Видеоархив"
    INDEX 01 32:07:30
  TRACK 133 AUDIO
    TITLE "00:32:22.17476"
    PERFORMER "Владимир Михайлович Зазнобин. Видеоархив"
    INDEX 01 32:22:13
  TRACK 134 AUDIO
    TITLE "00:32:36.38993"
    PERFORMER "Владимир Михайлович Зазнобин. Видеоархив"
    INDEX 01 32:36:29
  TRACK 135 AUDIO
    TITLE "00:32:50.87308"
    PERFORMER "Владимир Михайлович Зазнобин. Видеоархив"
    INDEX 01 32:50:65
  TRACK 136 AUDIO
    TITLE "00:33:07.03735"
    PERFORMER "Владимир Михайлович Зазнобин. Видеоархив"
    INDEX 01 33:07:03
  TRACK 137 AUDIO
    TITLE "00:33:20.59633"
    PERFORMER "Владимир Михайлович Зазнобин. Видеоархив"
    INDEX 01 33:20:45
  TRACK 138 AUDIO
    TITLE "00:33:35.87175"
    PERFORMER "Владимир Михайлович Зазнобин. Видеоархив"
    INDEX 01 33:35:65
  TRACK 139 AUDIO
    TITLE "00:33:52.39964"
    PERFORMER "Владимир Михайлович Зазнобин. Видеоархив"
    INDEX 01 33:52:30
  TRACK 140 AUDIO
    TITLE "00:34:07.33789"
    PERFORMER "Владимир Михайлович Зазнобин. Видеоархив"
    INDEX 01 34:07:25
  TRACK 141 AUDIO
    TITLE "00:34:21.17692"
    PERFORMER "Владимир Михайлович Зазнобин. Видеоархив"
    INDEX 01 34:21:13
  TRACK 142 AUDIO
    TITLE "00:34:37.28172"
    PERFORMER "Владимир Михайлович Зазнобин. Видеоархив"
    INDEX 01 34:37:21
  TRACK 143 AUDIO
    TITLE "00:34:50.35170"
    PERFORMER "Владимир Михайлович Зазнобин. Видеоархив"
    INDEX 01 34:50:26
  TRACK 144 AUDIO
    TITLE "00:35:03.16766"
    PERFORMER "Владимир Михайлович Зазнобин. Видеоархив"
    INDEX 01 35:03:13
  TRACK 145 AUDIO
    TITLE "00:35:16.44615"
    PERFORMER "Владимир Михайлович Зазнобин. Видеоархив"
    INDEX 01 35:16:33
  TRACK 146 AUDIO
    TITLE "00:35:29.87696"
    PERFORMER "Владимир Михайлович Зазнобин. Видеоархив"
    INDEX 01 35:29:66
  TRACK 147 AUDIO
    TITLE "00:35:43.72991"
    PERFORMER "Владимир Михайлович Зазнобин. Видеоархив"
    INDEX 01 35:43:55
  TRACK 148 AUDIO
    TITLE "00:35:57.26939"
    PERFORMER "Владимир Михайлович Зазнобин. Видеоархив"
    INDEX 01 35:57:20
  TRACK 149 AUDIO
    TITLE "00:36:11.58211"
    PERFORMER "Владимир Михайлович Зазнобин. Видеоархив"
    INDEX 01 36:11:44
  TRACK 150 AUDIO
    TITLE "00:36:26.71168"
    PERFORMER "Владимир Михайлович Зазнобин. Видеоархив"
    INDEX 01 36:26:53
  TRACK 151 AUDIO
    TITLE "00:36:42.05955"
    PERFORMER "Владимир Михайлович Зазнобин. Видеоархив"
    INDEX 01 36:42:04
  TRACK 152 AUDIO
    TITLE "00:36:57.94934"
    PERFORMER "Владимир Михайлович Зазнобин. Видеоархив"
    INDEX 01 36:57:71
  TRACK 153 AUDIO
    TITLE "00:37:12.72134"
    PERFORMER "Владимир Михайлович Зазнобин. Видеоархив"
    INDEX 01 37:12:54
  TRACK 154 AUDIO
    TITLE "00:37:26.88313"
    PERFORMER "Владимир Михайлович Зазнобин. Видеоархив"
    INDEX 01 37:26:66
  TRACK 155 AUDIO
    TITLE "00:37:44.07789"
    PERFORMER "Владимир Михайлович Зазнобин. Видеоархив"
    INDEX 01 37:44:06
  TRACK 156 AUDIO
    TITLE "00:37:59.35376"
    PERFORMER "Владимир Михайлович Зазнобин. Видеоархив"
    INDEX 01 37:59:27
  TRACK 157 AUDIO
    TITLE "00:38:14.34542"
    PERFORMER "Владимир Михайлович Зазнобин. Видеоархив"
    INDEX 01 38:14:26
  TRACK 158 AUDIO
    TITLE "00:38:28.61401"
    PERFORMER "Владимир Михайлович Зазнобин. Видеоархив"
    INDEX 01 38:28:46
  TRACK 159 AUDIO
    TITLE "00:38:43.22578"
    PERFORMER "Владимир Михайлович Зазнобин. Видеоархив"
    INDEX 01 38:43:17
  TRACK 160 AUDIO
    TITLE "00:38:58.05166"
    PERFORMER "Владимир Михайлович Зазнобин. Видеоархив"
    INDEX 01 38:58:04
  TRACK 161 AUDIO
    TITLE "00:39:11.65941"
    PERFORMER "Владимир Михайлович Зазнобин. Видеоархив"
    INDEX 01 39:11:49
  TRACK 162 AUDIO
    TITLE "00:39:28.71068"
    PERFORMER "Владимир Михайлович Зазнобин. Видеоархив"
    INDEX 01 39:28:53
  TRACK 163 AUDIO
    TITLE "00:39:44.61673"
    PERFORMER "Владимир Михайлович Зазнобин. Видеоархив"
    INDEX 01 39:44:46
  TRACK 164 AUDIO
    TITLE "00:39:58.90438"
    PERFORMER "Владимир Михайлович Зазнобин. Видеоархив"
    INDEX 01 39:58:68
  TRACK 165 AUDIO
    TITLE "00:40:12.21166"
    PERFORMER "Владимир Михайлович Зазнобин. Видеоархив"
    INDEX 01 40:12:16
  TRACK 166 AUDIO
    TITLE "00:40:26.10268"
    PERFORMER "Владимир Михайлович Зазнобин. Видеоархив"
    INDEX 01 40:26:08
  TRACK 167 AUDIO
    TITLE "00:40:44.08460"
    PERFORMER "Владимир Михайлович Зазнобин. Видеоархив"
    INDEX 01 40:44:06
  TRACK 168 AUDIO
    TITLE "00:40:57.12116"
    PERFORMER "Владимир Михайлович Зазнобин. Видеоархив"
    INDEX 01 40:57:09
  TRACK 169 AUDIO
    TITLE "00:41:11.18077"
    PERFORMER "Владимир Михайлович Зазнобин. Видеоархив"
    INDEX 01 41:11:14
  TRACK 170 AUDIO
    TITLE "00:41:26.09347"
    PERFORMER "Владимир Михайлович Зазнобин. Видеоархив"
    INDEX 01 41:26:07
  TRACK 171 AUDIO
    TITLE "00:41:43.05279"
    PERFORMER "Владимир Михайлович Зазнобин. Видеоархив"
    INDEX 01 41:43:04
  TRACK 172 AUDIO
    TITLE "00:41:56.03685"
    PERFORMER "Владимир Михайлович Зазнобин. Видеоархив"
    INDEX 01 41:56:03
  TRACK 173 AUDIO
    TITLE "00:42:15.21878"
    PERFORMER "Владимир Михайлович Зазнобин. Видеоархив"
    INDEX 01 42:15:16
  TRACK 174 AUDIO
    TITLE "00:42:29.87560"
    PERFORMER "Владимир Михайлович Зазнобин. Видеоархив"
    INDEX 01 42:29:66
  TRACK 175 AUDIO
    TITLE "00:42:44.18413"
    PERFORMER "Владимир Михайлович Зазнобин. Видеоархив"
    INDEX 01 42:44:14
  TRACK 176 AUDIO
    TITLE "00:42:56.98245"
    PERFORMER "Владимир Михайлович Зазнобин. Видеоархив"
    INDEX 01 42:56:74
  TRACK 177 AUDIO
    TITLE "00:43:09.73431"
    PERFORMER "Владимир Михайлович Зазнобин. Видеоархив"
    INDEX 01 43:09:55
  TRACK 178 AUDIO
    TITLE "00:43:22.88649"
    PERFORMER "Владимир Михайлович Зазнобин. Видеоархив"
    INDEX 01 43:22:66
  TRACK 179 AUDIO
    TITLE "00:43:36.77984"
    PERFORMER "Владимир Михайлович Зазнобин. Видеоархив"
    INDEX 01 43:36:58
  TRACK 180 AUDIO
    TITLE "00:43:51.81422"
    PERFORMER "Владимир Михайлович Зазнобин. Видеоархив"
    INDEX 01 43:51:61
  TRACK 181 AUDIO
    TITLE "00:44:06.04333"
    PERFORMER "Владимир Михайлович Зазнобин. Видеоархив"
    INDEX 01 44:06:03
  TRACK 182 AUDIO
    TITLE "00:44:20.24551"
    PERFORMER "Владимир Михайлович Зазнобин. Видеоархив"
    INDEX 01 44:20:18
  TRACK 183 AUDIO
    TITLE "00:44:34.20295"
    PERFORMER "Владимир Михайлович Зазнобин. Видеоархив"
    INDEX 01 44:34:15
  TRACK 184 AUDIO
    TITLE "00:44:50.16522"
    PERFORMER "Владимир Михайлович Зазнобин. Видеоархив"
    INDEX 01 44:50:12
  TRACK 185 AUDIO
    TITLE "00:45:03.21800"
    PERFORMER "Владимир Михайлович Зазнобин. Видеоархив"
    INDEX 01 45:03:16
  TRACK 186 AUDIO
    TITLE "00:45:16.29494"
    PERFORMER "Владимир Михайлович Зазнобин. Видеоархив"
    INDEX 01 45:16:22
  TRACK 187 AUDIO
    TITLE "00:45:32.92175"
    PERFORMER "Владимир Михайлович Зазнобин. Видеоархив"
    INDEX 01 45:32:69
  TRACK 188 AUDIO
    TITLE "00:45:47.00041"
    PERFORMER "Владимир Михайлович Зазнобин. Видеоархив"
    INDEX 01 45:47:00
  TRACK 189 AUDIO
    TITLE "00:46:00.46186"
    PERFORMER "Владимир Михайлович Зазнобин. Видеоархив"
    INDEX 01 46:00:35
  TRACK 190 AUDIO
    TITLE "00:46:17.02599"
    PERFORMER "Владимир Михайлович Зазнобин. Видеоархив"
    INDEX 01 46:17:02
  TRACK 191 AUDIO
    TITLE "00:46:32.97245"
    PERFORMER "Владимир Михайлович Зазнобин. Видеоархив"
    INDEX 01 46:32:73
  TRACK 192 AUDIO
    TITLE "00:46:50.07757"
    PERFORMER "Владимир Михайлович Зазнобин. Видеоархив"
    INDEX 01 46:50:06
  TRACK 193 AUDIO
    TITLE "00:47:04.67590"
    PERFORMER "Владимир Михайлович Зазнобин. Видеоархив"
    INDEX 01 47:04:51
  TRACK 194 AUDIO
    TITLE "00:47:22.34714"
    PERFORMER "Владимир Михайлович Зазнобин. Видеоархив"
    INDEX 01 47:22:26
  TRACK 195 AUDIO
    TITLE "00:47:36.82517"
    PERFORMER "Владимир Михайлович Зазнобин. Видеоархив"
    INDEX 01 47:36:62
  TRACK 196 AUDIO
    TITLE "00:47:53.10088"
    PERFORMER "Владимир Михайлович Зазнобин. Видеоархив"
    INDEX 01 47:53:08
  TRACK 197 AUDIO
    TITLE "00:48:09.11145"
    PERFORMER "Владимир Михайлович Зазнобин. Видеоархив"
    INDEX 01 48:09:08
  TRACK 198 AUDIO
    TITLE "00:48:22.05093"
    PERFORMER "Владимир Михайлович Зазнобин. Видеоархив"
    INDEX 01 48:22:04
  TRACK 199 AUDIO
    TITLE "00:48:36.23592"
    PERFORMER "Владимир Михайлович Зазнобин. Видеоархив"
    INDEX 01 48:36:18
  TRACK 200 AUDIO
    TITLE "00:48:51.36968"
    PERFORMER "Владимир Михайлович Зазнобин. Видеоархив"
    INDEX 01 48:51:28
  TRACK 201 AUDIO
    TITLE "00:49:05.37077"
    PERFORMER "Владимир Михайлович Зазнобин. Видеоархив"
    INDEX 01 49:05:28
  TRACK 202 AUDIO
    TITLE "00:49:20.38054"
    PERFORMER "Владимир Михайлович Зазнобин. Видеоархив"
    INDEX 01 49:20:29
  TRACK 203 AUDIO
    TITLE "00:49:34.43971"
    PERFORMER "Владимир Михайлович Зазнобин. Видеоархив"
    INDEX 01 49:34:33
  TRACK 204 AUDIO
    TITLE "00:49:51.09252"
    PERFORMER "Владимир Михайлович Зазнобин. Видеоархив"
    INDEX 01 49:51:07
  TRACK 205 AUDIO
    TITLE "00:50:05.02533"
    PERFORMER "Владимир Михайлович Зазнобин. Видеоархив"
    INDEX 01 50:05:02
  TRACK 206 AUDIO
    TITLE "00:50:18.44036"
    PERFORMER "Владимир Михайлович Зазнобин. Видеоархив"
    INDEX 01 50:18:33
  TRACK 207 AUDIO
    TITLE "00:50:31.95104"
    PERFORMER "Владимир Михайлович Зазнобин. Видеоархив"
    INDEX 01 50:31:71
  TRACK 208 AUDIO
    TITLE "00:50:45.05864"
    PERFORMER "Владимир Михайлович Зазнобин. Видеоархив"
    INDEX 01 50:45:04
  TRACK 209 AUDIO
    TITLE "00:50:58.66454"
    PERFORMER "Владимир Михайлович Зазнобин. Видеоархив"
    INDEX 01 50:58:50
  TRACK 210 AUDIO
    TITLE "00:51:14.00170"
    PERFORMER "Владимир Михайлович Зазнобин. Видеоархив"
    INDEX 01 51:14:00
  TRACK 211 AUDIO
    TITLE "00:51:30.43998"
    PERFORMER "Владимир Михайлович Зазнобин. Видеоархив"
    INDEX 01 51:30:33
  TRACK 212 AUDIO
    TITLE "00:51:45.88952"
    PERFORMER "Владимир Михайлович Зазнобин. Видеоархив"
    INDEX 01 51:45:67
  TRACK 213 AUDIO
    TITLE "00:52:01.93397"
    PERFORMER "Владимир Михайлович Зазнобин. Видеоархив"
    INDEX 01 52:01:70
  TRACK 214 AUDIO
    TITLE "00:52:15.50224"
    PERFORMER "Владимир Михайлович Зазнобин. Видеоархив"
    INDEX 01 52:15:38
  TRACK 215 AUDIO
    TITLE "00:52:29.54980"
    PERFORMER "Владимир Михайлович Зазнобин. Видеоархив"
    INDEX 01 52:29:41
  TRACK 216 AUDIO
    TITLE "00:52:43.41435"
    PERFORMER "Владимир Михайлович Зазнобин. Видеоархив"
    INDEX 01 52:43:31
  TRACK 217 AUDIO
    TITLE "00:52:58.53048"
    PERFORMER "Владимир Михайлович Зазнобин. Видеоархив"
    INDEX 01 52:58:40
  TRACK 218 AUDIO
    TITLE "00:53:12.43172"
    PERFORMER "Владимир Михайлович Зазнобин. Видеоархив"
    INDEX 01 53:12:32
  TRACK 219 AUDIO
    TITLE "00:53:25.76315"
    PERFORMER "Владимир Михайлович Зазнобин. Видеоархив"
    INDEX 01 53:25:57
  TRACK 220 AUDIO
    TITLE "00:53:41.66410"
    PERFORMER "Владимир Михайлович Зазнобин. Видеоархив"
    INDEX 01 53:41:50
  TRACK 221 AUDIO
    TITLE "00:53:56.06320"
    PERFORMER "Владимир Михайлович Зазнобин. Видеоархив"
    INDEX 01 53:56:05
  TRACK 222 AUDIO
    TITLE "00:54:09.03193"
    PERFORMER "Владимир Михайлович Зазнобин. Видеоархив"
    INDEX 01 54:09:02
  TRACK 223 AUDIO
    TITLE "00:54:21.94075"
    PERFORMER "Владимир Михайлович Зазнобин. Видеоархив"
    INDEX 01 54:21:71
  TRACK 224 AUDIO
    TITLE "00:54:36.10812"
    PERFORMER "Владимир Михайлович Зазнобин. Видеоархив"
    INDEX 01 54:36:08
  TRACK 225 AUDIO
    TITLE "00:54:50.96834"
    PERFORMER "Владимир Михайлович Зазнобин. Видеоархив"
    INDEX 01 54:50:73
  TRACK 226 AUDIO
    TITLE "00:55:05.37113"
    PERFORMER "Владимир Михайлович Зазнобин. Видеоархив"
    INDEX 01 55:05:28
  TRACK 227 AUDIO
    TITLE "00:55:18.17828"
    PERFORMER "Владимир Михайлович Зазнобин. Видеоархив"
    INDEX 01 55:18:13
  TRACK 228 AUDIO
    TITLE "00:55:32.55134"
    PERFORMER "Владимир Михайлович Зазнобин. Видеоархив"
    INDEX 01 55:32:41
  TRACK 229 AUDIO
    TITLE "00:55:47.04655"
    PERFORMER "Владимир Михайлович Зазнобин. Видеоархив"
    INDEX 01 55:47:03
  TRACK 230 AUDIO
    TITLE "00:56:01.45680"
    PERFORMER "Владимир Михайлович Зазнобин. Видеоархив"
    INDEX 01 56:01:34
  TRACK 231 AUDIO
    TITLE "00:56:15.50385"
    PERFORMER "Владимир Михайлович Зазнобин. Видеоархив"
    INDEX 01 56:15:38
  TRACK 232 AUDIO
    TITLE "00:56:28.75356"
    PERFORMER "Владимир Михайлович Зазнобин. Видеоархив"
    INDEX 01 56:28:57
  TRACK 233 AUDIO
    TITLE "00:56:41.76177"
    PERFORMER "Владимир Михайлович Зазнобин. Видеоархив"
    INDEX 01 56:41:57
  TRACK 234 AUDIO
    TITLE "00:56:57.68873"
    PERFORMER "Владимир Михайлович Зазнобин. Видеоархив"
    INDEX 01 56:57:52
  TRACK 235 AUDIO
    TITLE "00:57:11.28812"
    PERFORMER "Владимир Михайлович Зазнобин. Видеоархив"
    INDEX 01 57:11:22
  TRACK 236 AUDIO
    TITLE "00:57:24.93349"
    PERFORMER "Владимир Михайлович Зазнобин. Видеоархив"
    INDEX 01 57:24:70
  TRACK 237 AUDIO
    TITLE "00:57:38.03923"
    PERFORMER "Владимир Михайлович Зазнобин. Видеоархив"
    INDEX 01 57:38:03
  TRACK 238 AUDIO
    TITLE "00:57:51.49420"
    PERFORMER "Владимир Михайлович Зазнобин. Видеоархив"
    INDEX 01 57:51:37
  TRACK 239 AUDIO
    TITLE "00:58:04.65982"
    PERFORMER "Владимир Михайлович Зазнобин. Видеоархив"
    INDEX 01 58:04:49
  TRACK 240 AUDIO
    TITLE "00:58:19.47501"
    PERFORMER "Владимир Михайлович Зазнобин. Видеоархив"
    INDEX 01 58:19:36
  TRACK 241 AUDIO
    TITLE "00:58:33.16032"
    PERFORMER "Владимир Михайлович Зазнобин. Видеоархив"
    INDEX 01 58:33:12
  TRACK 242 AUDIO
    TITLE "00:58:46.51125"
    PERFORMER "Владимир Михайлович Зазнобин. Видеоархив"
    INDEX 01 58:46:38
  TRACK 243 AUDIO
    TITLE "00:59:00.36698"
    PERFORMER "Владимир Михайлович Зазнобин. Видеоархив"
    INDEX 01 59:00:28
  TRACK 244 AUDIO
    TITLE "00:59:15.27227"
    PERFORMER "Владимир Михайлович Зазнобин. Видеоархив"
    INDEX 01 59:15:20
  TRACK 245 AUDIO
    TITLE "00:59:28.22986"
    PERFORMER "Владимир Михайлович Зазнобин. Видеоархив"
    INDEX 01 59:28:17
  TRACK 246 AUDIO
    TITLE "00:59:42.33361"
    PERFORMER "Владимир Михайлович Зазнобин. Видеоархив"
    INDEX 01 59:42:25
  TRACK 247 AUDIO
    TITLE "00:59:59.76195"
    PERFORMER "Владимир Михайлович Зазнобин. Видеоархив"
    INDEX 01 59:59:57
  TRACK 248 AUDIO
    TITLE "01:00:12.87884"
    PERFORMER "Владимир Михайлович Зазнобин. Видеоархив"
    INDEX 01 60:12:66
  TRACK 249 AUDIO
    TITLE "01:00:27.49478"
    PERFORMER "Владимир Михайлович Зазнобин. Видеоархив"
    INDEX 01 60:27:37
  TRACK 250 AUDIO
    TITLE "01:00:44.03290"
    PERFORMER "Владимир Михайлович Зазнобин. Видеоархив"
    INDEX 01 60:44:02
  TRACK 251 AUDIO
    TITLE "01:00:57.08524"
    PERFORMER "Владимир Михайлович Зазнобин. Видеоархив"
    INDEX 01 60:57:06
  TRACK 252 AUDIO
    TITLE "01:01:11.37007"
    PERFORMER "Владимир Михайлович Зазнобин. Видеоархив"
    INDEX 01 61:11:28
  TRACK 253 AUDIO
    TITLE "01:01:25.42224"
    PERFORMER "Владимир Михайлович Зазнобин. Видеоархив"
    INDEX 01 61:25:32
  TRACK 254 AUDIO
    TITLE "01:01:39.89703"
    PERFORMER "Владимир Михайлович Зазнобин. Видеоархив"
    INDEX 01 61:39:67
  TRACK 255 AUDIO
    TITLE "01:01:54.78236"
    PERFORMER "Владимир Михайлович Зазнобин. Видеоархив"
    INDEX 01 61:54:59
  TRACK 256 AUDIO
    TITLE "01:02:09.45404"
    PERFORMER "Владимир Михайлович Зазнобин. Видеоархив"
    INDEX 01 62:09:34
  TRACK 257 AUDIO
    TITLE "01:02:22.92247"
    PERFORMER "Владимир Михайлович Зазнобин. Видеоархив"
    INDEX 01 62:22:69
  TRACK 258 AUDIO
    TITLE "01:02:38.43054"
    PERFORMER "Владимир Михайлович Зазнобин. Видеоархив"
    INDEX 01 62:38:32
  TRACK 259 AUDIO
    TITLE "01:02:52.66986"
    PERFORMER "Владимир Михайлович Зазнобин. Видеоархив"
    INDEX 01 62:52:50
  TRACK 260 AUDIO
    TITLE "01:03:06.67980"
    PERFORMER "Владимир Михайлович Зазнобин. Видеоархив"
    INDEX 01 63:06:51
  TRACK 261 AUDIO
    TITLE "01:03:20.76122"
    PERFORMER "Владимир Михайлович Зазнобин. Видеоархив"
    INDEX 01 63:20:57
  TRACK 262 AUDIO
    TITLE "01:03:37.97272"
    PERFORMER "Владимир Михайлович Зазнобин. Видеоархив"
    INDEX 01 63:37:73
  TRACK 263 AUDIO
    TITLE "01:03:51.68263"
    PERFORMER "Владимир Михайлович Зазнобин. Видеоархив"
    INDEX 01 63:51:51
  TRACK 264 AUDIO
    TITLE "01:04:04.70431"
    PERFORMER "Владимир Михайлович Зазнобин. Видеоархив"
    INDEX 01 64:04:53
  TRACK 265 AUDIO
    TITLE "01:04:19.00633"
    PERFORMER "Владимир Михайлович Зазнобин. Видеоархив"
    INDEX 01 64:19:00
  TRACK 266 AUDIO
    TITLE "01:04:32.56578"
    PERFORMER "Владимир Михайлович Зазнобин. Видеоархив"
    INDEX 01 64:32:42
  TRACK 267 AUDIO
    TITLE "01:04:46.94073"
    PERFORMER "Владимир Михайлович Зазнобин. Видеоархив"
    INDEX 01 64:46:71
  TRACK 268 AUDIO
    TITLE "01:05:02.31320"
    PERFORMER "Владимир Михайлович Зазнобин. Видеоархив"
    INDEX 01 65:02:23
  TRACK 269 AUDIO
    TITLE "01:05:19.23769"
    PERFORMER "Владимир Михайлович Зазнобин. Видеоархив"
    INDEX 01 65:19:18
  TRACK 270 AUDIO
    TITLE "01:05:32.59141"
    PERFORMER "Владимир Михайлович Зазнобин. Видеоархив"
    INDEX 01 65:32:44
  TRACK 271 AUDIO
    TITLE "01:05:49.41000"
    PERFORMER "Владимир Михайлович Зазнобин. Видеоархив"
    INDEX 01 65:49:31
  TRACK 272 AUDIO
    TITLE "01:06:03.25413"
    PERFORMER "Владимир Михайлович Зазнобин. Видеоархив"
    INDEX 01 66:03:19
  TRACK 273 AUDIO
    TITLE "01:06:17.56592"
    PERFORMER "Владимир Михайлович Зазнобин. Видеоархив"
    INDEX 01 66:17:42
  TRACK 274 AUDIO
    TITLE "01:06:30.70834"
    PERFORMER "Владимир Михайлович Зазнобин. Видеоархив"
    INDEX 01 66:30:53
  TRACK 275 AUDIO
    TITLE "01:06:44.45540"
    PERFORMER "Владимир Михайлович Зазнобин. Видеоархив"
    INDEX 01 66:44:34
  TRACK 276 AUDIO
    TITLE "01:06:59.14336"
    PERFORMER "Владимир Михайлович Зазнобин. Видеоархив"
    INDEX 01 66:59:11
  TRACK 277 AUDIO
    TITLE "01:07:13.70125"
    PERFORMER "Владимир Михайлович Зазнобин. Видеоархив"
    INDEX 01 67:13:53
  TRACK 278 AUDIO
    TITLE "01:07:27.59415"
    PERFORMER "Владимир Михайлович Зазнобин. Видеоархив"
    INDEX 01 67:27:45
  TRACK 279 AUDIO
    TITLE "01:07:41.70810"
    PERFORMER "Владимир Михайлович Зазнобин. Видеоархив"
    INDEX 01 67:41:53
  TRACK 280 AUDIO
    TITLE "01:07:58.90193"
    PERFORMER "Владимир Михайлович Зазнобин. Видеоархив"
    INDEX 01 67:58:68
  TRACK 281 AUDIO
    TITLE "01:08:13.59685"
    PERFORMER "Владимир Михайлович Зазнобин. Видеоархив"
    INDEX 01 68:13:45
  TRACK 282 AUDIO
    TITLE "01:08:28.09299"
    PERFORMER "Владимир Михайлович Зазнобин. Видеоархив"
    INDEX 01 68:28:07
  TRACK 283 AUDIO
    TITLE "01:08:49.62478"
    PERFORMER "Владимир Михайлович Зазнобин. Видеоархив"
    INDEX 01 68:49:47
  TRACK 284 AUDIO
    TITLE "01:09:04.76689"
    PERFORMER "Владимир Михайлович Зазнобин. Видеоархив"
    INDEX 01 69:04:58
  TRACK 285 AUDIO
    TITLE "01:09:18.44059"
    PERFORMER "Владимир Михайлович Зазнобин. Видеоархив"
    INDEX 01 69:18:33
  TRACK 286 AUDIO
    TITLE "01:09:35.46075"
    PERFORMER "Владимир Михайлович Зазнобин. Видеоархив"
    INDEX 01 69:35:35
  TRACK 287 AUDIO
    TITLE "01:09:48.88925"
    PERFORMER "Владимир Михайлович Зазнобин. Видеоархив"
    INDEX 01 69:48:67
  TRACK 288 AUDIO
    TITLE "01:10:02.28476"
    PERFORMER "Владимир Михайлович Зазнобин. Видеоархив"
    INDEX 01 70:02:21
  TRACK 289 AUDIO
    TITLE "01:10:15.16016"
    PERFORMER "Владимир Михайлович Зазнобин. Видеоархив"
    INDEX 01 70:15:12
  TRACK 290 AUDIO
    TITLE "01:10:32.80213"
    PERFORMER "Владимир Михайлович Зазнобин. Видеоархив"
    INDEX 01 70:32:60
  TRACK 291 AUDIO
    TITLE "01:10:48.39751"
    PERFORMER "Владимир Михайлович Зазнобин. Видеоархив"
    INDEX 01 70:48:30
  TRACK 292 AUDIO
    TITLE "01:11:02.90295"
    PERFORMER "Владимир Михайлович Зазнобин. Видеоархив"
    INDEX 01 71:02:68
  TRACK 293 AUDIO
    TITLE "01:11:16.96859"
    PERFORMER "Владимир Михайлович Зазнобин. Видеоархив"
    INDEX 01 71:16:73
  TRACK 294 AUDIO
    TITLE "01:11:37.13551"
    PERFORMER "Владимир Михайлович Зазнобин. Видеоархив"
    INDEX 01 71:37:10
  TRACK 295 AUDIO
    TITLE "01:11:51.74776"
    PERFORMER "Владимир Михайлович Зазнобин. Видеоархив"
    INDEX 01 71:51:56
  TRACK 296 AUDIO
    TITLE "01:12:07.34082"
    PERFORMER "Владимир Михайлович Зазнобин. Видеоархив"
    INDEX 01 72:07:26
  TRACK 297 AUDIO
    TITLE "01:12:20.31560"
    PERFORMER "Владимир Михайлович Зазнобин. Видеоархив"
    INDEX 01 72:20:24
  TRACK 298 AUDIO
    TITLE "01:12:34.35476"
    PERFORMER "Владимир Михайлович Зазнобин. Видеоархив"
    INDEX 01 72:34:27
  TRACK 299 AUDIO
    TITLE "01:12:47.94905"
    PERFORMER "Владимир Михайлович Зазнобин. Видеоархив"
    INDEX 01 72:47:71
  TRACK 300 AUDIO
    TITLE "01:13:00.88667"
    PERFORMER "Владимир Михайлович Зазнобин. Видеоархив"
    INDEX 01 73:00:67
  TRACK 301 AUDIO
    TITLE "01:13:14.38156"
    PERFORMER "Владимир Михайлович Зазнобин. Видеоархив"
    INDEX 01 73:14:29
  TRACK 302 AUDIO
    TITLE "01:13:31.17741"
    PERFORMER "Владимир Михайлович Зазнобин. Видеоархив"
    INDEX 01 73:31:13
  TRACK 303 AUDIO
    TITLE "01:13:47.78195"
    PERFORMER "Владимир Михайлович Зазнобин. Видеоархив"
    INDEX 01 73:47:59
  TRACK 304 AUDIO
    TITLE "01:14:01.61354"
    PERFORMER "Владимир Михайлович Зазнобин. Видеоархив"
    INDEX 01 74:01:46
  TRACK 305 AUDIO
    TITLE "01:14:14.81215"
    PERFORMER "Владимир Михайлович Зазнобин. Видеоархив"
    INDEX 01 74:14:61
  TRACK 306 AUDIO
    TITLE "01:14:29.76433"
    PERFORMER "Владимир Михайлович Зазнобин. Видеоархив"
    INDEX 01 74:29:57
  TRACK 307 AUDIO
    TITLE "01:14:43.41619"
    PERFORMER "Владимир Михайлович Зазнобин. Видеоархив"
    INDEX 01 74:43:31
  TRACK 308 AUDIO
    TITLE "01:14:56.73649"
    PERFORMER "Владимир Михайлович Зазнобин. Видеоархив"
    INDEX 01 74:56:55
  TRACK 309 AUDIO
    TITLE "01:15:10.81977"
    PERFORMER "Владимир Михайлович Зазнобин. Видеоархив"
    INDEX 01 75:10:61
  TRACK 310 AUDIO
    TITLE "01:15:25.51329"
    PERFORMER "Владимир Михайлович Зазнобин. Видеоархив"
    INDEX 01 75:25:38
  TRACK 311 AUDIO
    TITLE "01:15:39.28451"
    PERFORMER "Владимир Михайлович Зазнобин. Видеоархив"
    INDEX 01 75:39:21
  TRACK 312 AUDIO
    TITLE "01:15:53.05805"
    PERFORMER "Владимир Михайлович Зазнобин. Видеоархив"
    INDEX 01 75:53:04
  TRACK 313 AUDIO
    TITLE "01:16:06.30542"
    PERFORMER "Владимир Михайлович Зазнобин. Видеоархив"
    INDEX 01 76:06:23
  TRACK 314 AUDIO
    TITLE "01:16:19.68098"
    PERFORMER "Владимир Михайлович Зазнобин. Видеоархив"
    INDEX 01 76:19:51
  TRACK 315 AUDIO
    TITLE "01:16:35.99431"
    PERFORMER "Владимир Михайлович Зазнобин. Видеоархив"
    INDEX 01 76:36:00
  TRACK 316 AUDIO
    TITLE "01:16:49.51011"
    PERFORMER "Владимир Михайлович Зазнобин. Видеоархив"
    INDEX 01 76:49:38
  TRACK 317 AUDIO
    TITLE "01:17:03.35238"
    PERFORMER "Владимир Михайлович Зазнобин. Видеоархив"
    INDEX 01 77:03:26
  TRACK 318 AUDIO
    TITLE "01:17:18.94172"
    PERFORMER "Владимир Михайлович Зазнобин. Видеоархив"
    INDEX 01 77:18:71
  TRACK 319 AUDIO
    TITLE "01:17:32.85692"
    PERFORMER "Владимир Михайлович Зазнобин. Видеоархив"
    INDEX 01 77:32:64
  TRACK 320 AUDIO
    TITLE "01:17:48.20245"
    PERFORMER "Владимир Михайлович Зазнобин. Видеоархив"
    INDEX 01 77:48:15
  TRACK 321 AUDIO
    TITLE "01:18:04.01329"
    PERFORMER "Владимир Михайлович Зазнобин. Видеоархив"
    INDEX 01 78:04:01
  TRACK 322 AUDIO
    TITLE "01:18:18.32181"
    PERFORMER "Владимир Михайлович Зазнобин. Видеоархив"
    INDEX 01 78:18:24
  TRACK 323 AUDIO
    TITLE "01:18:32.83794"
    PERFORMER "Владимир Михайлович Зазнобин. Видеоархив"
    INDEX 01 78:32:63
  TRACK 324 AUDIO
    TITLE "01:18:48.15329"
    PERFORMER "Владимир Михайлович Зазнобин. Видеоархив"
    INDEX 01 78:48:11
  TRACK 325 AUDIO
    TITLE "01:19:02.78503"
    PERFORMER "Владимир Михайлович Зазнобин. Видеоархив"
    INDEX 01 79:02:59
  TRACK 326 AUDIO
    TITLE "01:19:16.97422"
    PERFORMER "Владимир Михайлович Зазнобин. Видеоархив"
    INDEX 01 79:16:73
  TRACK 327 AUDIO
    TITLE "01:19:31.66773"
    PERFORMER "Владимир Михайлович Зазнобин. Видеоархив"
    INDEX 01 79:31:50
  TRACK 328 AUDIO
    TITLE "01:19:45.96930"
    PERFORMER "Владимир Михайлович Зазнобин. Видеоархив"
    INDEX 01 79:45:73
  TRACK 329 AUDIO
    TITLE "01:19:59.43585"
    PERFORMER "Владимир Михайлович Зазнобин. Видеоархив"
    INDEX 01 79:59:33
  TRACK 330 AUDIO
    TITLE "01:20:12.45939"
    PERFORMER "Владимир Михайлович Зазнобин. Видеоархив"
    INDEX 01 80:12:34
  TRACK 331 AUDIO
    TITLE "01:20:27.47660"
    PERFORMER "Владимир Михайлович Зазнобин. Видеоархив"
    INDEX 01 80:27:36
  TRACK 332 AUDIO
    TITLE "01:20:41.47073"
    PERFORMER "Владимир Михайлович Зазнобин. Видеоархив"
    INDEX 01 80:41:35
  TRACK 333 AUDIO
    TITLE "01:20:55.18435"
    PERFORMER "Владимир Михайлович Зазнобин. Видеоархив"
    INDEX 01 80:55:14
  TRACK 334 AUDIO
    TITLE "01:21:10.04599"
    PERFORMER "Владимир Михайлович Зазнобин. Видеоархив"
    INDEX 01 81:10:03
  TRACK 335 AUDIO
    TITLE "01:21:23.93283"
    PERFORMER "Владимир Михайлович Зазнобин. Видеоархив"
    INDEX 01 81:23:70
  TRACK 336 AUDIO
    TITLE "01:21:43.13660"
    PERFORMER "Владимир Михайлович Зазнобин. Видеоархив"
    INDEX 01 81:43:10
  TRACK 337 AUDIO
    TITLE "01:22:00.02905"
    PERFORMER "Владимир Михайлович Зазнобин. Видеоархив"
    INDEX 01 82:00:02
  TRACK 338 AUDIO
    TITLE "01:22:15.48324"
    PERFORMER "Владимир Михайлович Зазнобин. Видеоархив"
    INDEX 01 82:15:36
  TRACK 339 AUDIO
    TITLE "01:22:28.68837"
    PERFORMER "Владимир Михайлович Зазнобин. Видеоархив"
    INDEX 01 82:28:52
  TRACK 340 AUDIO
    TITLE "01:22:43.25138"
    PERFORMER "Владимир Михайлович Зазнобин. Видеоархив"
    INDEX 01 82:43:19
  TRACK 341 AUDIO
    TITLE "01:22:58.40279"
    PERFORMER "Владимир Михайлович Зазнобин. Видеоархив"
    INDEX 01 82:58:30
  TRACK 342 AUDIO
    TITLE "01:23:12.05930"
    PERFORMER "Владимир Михайлович Зазнобин. Видеоархив"
    INDEX 01 83:12:04
  TRACK 343 AUDIO
    TITLE "01:23:26.30422"
    PERFORMER "Владимир Михайлович Зазнобин. Видеоархив"
    INDEX 01 83:26:23
  TRACK 344 AUDIO
    TITLE "01:23:39.95794"
    PERFORMER "Владимир Михайлович Зазнобин. Видеоархив"
    INDEX 01 83:39:72
  TRACK 345 AUDIO
    TITLE "01:23:55.28721"
    PERFORMER "Владимир Михайлович Зазнобин. Видеоархив"
    INDEX 01 83:55:22
  TRACK 346 AUDIO
    TITLE "01:24:09.09279"
    PERFORMER "Владимир Михайлович Зазнобин. Видеоархив"
    INDEX 01 84:09:07
  TRACK 347 AUDIO
    TITLE "01:24:22.66293"
    PERFORMER "Владимир Михайлович Зазнобин. Видеоархив"
    INDEX 01 84:22:50
  TRACK 348 AUDIO
    TITLE "01:24:39.37333"
    PERFORMER "Владимир Михайлович Зазнобин. Видеоархив"
    INDEX 01 84:39:28
  TRACK 349 AUDIO
    TITLE "01:24:52.35043"
    PERFORMER "Владимир Михайлович Зазнобин. Видеоархив"
    INDEX 01 84:52:26
  TRACK 350 AUDIO
    TITLE "01:25:06.49177"
    PERFORMER "Владимир Михайлович Зазнобин. Видеоархив"
    INDEX 01 85:06:37
  TRACK 351 AUDIO
    TITLE "01:25:21.93483"
    PERFORMER "Владимир Михайлович Зазнобин. Видеоархив"
    INDEX 01 85:21:70
  TRACK 352 AUDIO
    TITLE "01:25:35.71023"
    PERFORMER "Владимир Михайлович Зазнобин. Видеоархив"
    INDEX 01 85:35:53
  TRACK 353 AUDIO
    TITLE "01:25:49.46612"
    PERFORMER "Владимир Михайлович Зазнобин. Видеоархив"
    INDEX 01 85:49:35
  TRACK 354 AUDIO
    TITLE "01:26:03.67991"
    PERFORMER "Владимир Михайлович Зазнобин. Видеоархив"
    INDEX 01 86:03:51
  TRACK 355 AUDIO
    TITLE "01:26:22.54186"
    PERFORMER "Владимир Михайлович Зазнобин. Видеоархив"
    INDEX 01 86:22:41
  TRACK 356 AUDIO
    TITLE "01:26:37.10907"
    PERFORMER "Владимир Михайлович Зазнобин. Видеоархив"
    INDEX 01 86:37:08
  TRACK 357 AUDIO
    TITLE "01:26:52.16805"
    PERFORMER "Владимир Михайлович Зазнобин. Видеоархив"
    INDEX 01 86:52:13
  TRACK 358 AUDIO
    TITLE "01:27:05.38385"
    PERFORMER "Владимир Михайлович Зазнобин. Видеоархив"
    INDEX 01 87:05:29
  TRACK 359 AUDIO
    TITLE "01:27:21.49937"
    PERFORMER "Владимир Михайлович Зазнобин. Видеоархив"
    INDEX 01 87:21:37
  TRACK 360 AUDIO
    TITLE "01:27:35.30819"
    PERFORMER "Владимир Михайлович Зазнобин. Видеоархив"
    INDEX 01 87:35:23
  TRACK 361 AUDIO
    TITLE "01:27:49.66828"
    PERFORMER "Владимир Михайлович Зазнобин. Видеоархив"
    INDEX 01 87:49:50
  TRACK 362 AUDIO
    TITLE "01:28:03.49707"
    PERFORMER "Владимир Михайлович Зазнобин. Видеоархив"
    INDEX 01 88:03:37
  TRACK 363 AUDIO
    TITLE "01:28:16.80576"
    PERFORMER "Владимир Михайлович Зазнобин. Видеоархив"
    INDEX 01 88:16:60
  TRACK 364 AUDIO
    TITLE "01:28:30.53331"
    PERFORMER "Владимир Михайлович Зазнобин. Видеоархив"
    INDEX 01 88:30:40
  TRACK 365 AUDIO
    TITLE "01:28:45.87048"
    PERFORMER "Владимир Михайлович Зазнобин. Видеоархив"
    INDEX 01 88:45:65
  TRACK 366 AUDIO
    TITLE "01:28:59.64170"
    PERFORMER "Владимир Михайлович Зазнобин. Видеоархив"
    INDEX 01 88:59:48
  TRACK 367 AUDIO
    TITLE "01:29:14.90224"
    PERFORMER "Владимир Михайлович Зазнобин. Видеоархив"
    INDEX 01 89:14:68
  TRACK 368 AUDIO
    TITLE "01:29:29.24515"
    PERFORMER "Владимир Михайлович Зазнобин. Видеоархив"
    INDEX 01 89:29:18
  TRACK 369 AUDIO
    TITLE "01:29:43.96839"
    PERFORMER "Владимир Михайлович Зазнобин. Видеоархив"
    INDEX 01 89:43:73
  TRACK 370 AUDIO
    TITLE "01:29:57.99780"
    PERFORMER "Владимир Михайлович Зазнобин. Видеоархив"
    INDEX 01 89:58:00
  TRACK 371 AUDIO
    TITLE "01:30:11.96129"
    PERFORMER "Владимир Михайлович Зазнобин. Видеоархив"
    INDEX 01 90:11:72
  TRACK 372 AUDIO
    TITLE "01:30:25.64891"
    PERFORMER "Владимир Михайлович Зазнобин. Видеоархив"
    INDEX 01 90:25:49
  TRACK 373 AUDIO
    TITLE "01:30:40.34011"
    PERFORMER "Владимир Михайлович Зазнобин. Видеоархив"
    INDEX 01 90:40:26
  TRACK 374 AUDIO
    TITLE "01:30:56.55175"
    PERFORMER "Владимир Михайлович Зазнобин. Видеоархив"
    INDEX 01 90:56:41
  TRACK 375 AUDIO
    TITLE "01:31:12.14850"
    PERFORMER "Владимир Михайлович Зазнобин. Видеоархив"
    INDEX 01 91:12:11
  TRACK 376 AUDIO
    TITLE "01:31:28.87889"
    PERFORMER "Владимир Михайлович Зазнобин. Видеоархив"
    INDEX 01 91:28:66
  TRACK 377 AUDIO
    TITLE "01:31:43.33601"
    PERFORMER "Владимир Михайлович Зазнобин. Видеоархив"
    INDEX 01 91:43:25
  TRACK 378 AUDIO
    TITLE "01:31:58.15771"
    PERFORMER "Владимир Михайлович Зазнобин. Видеоархив"
    INDEX 01 91:58:12
  TRACK 379 AUDIO
    TITLE "01:32:11.61034"
    PERFORMER "Владимир Михайлович Зазнобин. Видеоархив"
    INDEX 01 92:11:46
  TRACK 380 AUDIO
    TITLE "01:32:25.95882"
    PERFORMER "Владимир Михайлович Зазнобин. Видеоархив"
    INDEX 01 92:25:72
  TRACK 381 AUDIO
    TITLE "01:32:40.33374"
    PERFORMER "Владимир Михайлович Зазнобин. Видеоархив"
    INDEX 01 92:40:25
  TRACK 382 AUDIO
    TITLE "01:32:54.24057"
    PERFORMER "Владимир Михайлович Зазнобин. Видеоархив"
    INDEX 01 92:54:18
  TRACK 383 AUDIO
    TITLE "01:33:10.58594"
    PERFORMER "Владимир Михайлович Зазнобин. Видеоархив"
    INDEX 01 93:10:44
  TRACK 384 AUDIO
    TITLE "01:33:24.29494"
    PERFORMER "Владимир Михайлович Зазнобин. Видеоархив"
    INDEX 01 93:24:22
  TRACK 385 AUDIO
    TITLE "01:33:37.27669"
    PERFORMER "Владимир Михайлович Зазнобин. Видеоархив"
    INDEX 01 93:37:21
  TRACK 386 AUDIO
    TITLE "01:33:52.65937"
    PERFORMER "Владимир Михайлович Зазнобин. Видеоархив"
    INDEX 01 93:52:49
  TRACK 387 AUDIO
    TITLE "01:34:07.55583"
    PERFORMER "Владимир Михайлович Зазнобин. Видеоархив"
    INDEX 01 94:07:42
  TRACK 388 AUDIO
    TITLE "01:34:22.87070"
    PERFORMER "Владимир Михайлович Зазнобин. Видеоархив"
    INDEX 01 94:22:65
  TRACK 389 AUDIO
    TITLE "01:34:36.41807"
    PERFORMER "Владимир Михайлович Зазнобин. Видеоархив"
    INDEX 01 94:36:31
  TRACK 390 AUDIO
    TITLE "01:34:50.47073"
    PERFORMER "Владимир Михайлович Зазнобин. Видеоархив"
    INDEX 01 94:50:35
  TRACK 391 AUDIO
    TITLE "01:35:06.10837"
    PERFORMER "Владимир Михайлович Зазнобин. Видеоархив"
    INDEX 01 95:06:08
  TRACK 392 AUDIO
    TITLE "01:35:19.29769"
    PERFORMER "Владимир Михайлович Зазнобин. Видеоархив"
    INDEX 01 95:19:22
  TRACK 393 AUDIO
    TITLE "01:35:32.70204"
    PERFORMER "Владимир Михайлович Зазнобин. Видеоархив"
    INDEX 01 95:32:53
  TRACK 394 AUDIO
    TITLE "01:35:45.79429"
    PERFORMER "Владимир Михайлович Зазнобин. Видеоархив"
    INDEX 01 95:45:60
  TRACK 395 AUDIO
    TITLE "01:35:59.86923"
    PERFORMER "Владимир Михайлович Зазнобин. Видеоархив"
    INDEX 01 95:59:65
  TRACK 396 AUDIO
    TITLE "01:36:13.73286"
    PERFORMER "Владимир Михайлович Зазнобин. Видеоархив"
    INDEX 01 96:13:55
  TRACK 397 AUDIO
    TITLE "01:36:27.14186"
    PERFORMER "Владимир Михайлович Зазнобин. Видеоархив"
    INDEX 01 96:27:11
  TRACK 398 AUDIO
    TITLE "01:36:43.46633"
    PERFORMER "Владимир Михайлович Зазнобин. Видеоархив"
    INDEX 01 96:43:35
  TRACK 399 AUDIO
    TITLE "01:37:00.44980"
    PERFORMER "Владимир Михайлович Зазнобин. Видеоархив"
    INDEX 01 97:00:34
  TRACK 400 AUDIO
    TITLE "01:37:14.83635"
    PERFORMER "Владимир Михайлович Зазнобин. Видеоархив"
    INDEX 01 97:14:63
  TRACK 401 AUDIO
    TITLE "01:37:28.18449"
    PERFORMER "Владимир Михайлович Зазнобин. Видеоархив"
    INDEX 01 97:28:14
  TRACK 402 AUDIO
    TITLE "01:37:41.80571"
    PERFORMER "Владимир Михайлович Зазнобин. Видеоархив"
    INDEX 01 97:41:60
  TRACK 403 AUDIO
    TITLE "01:37:55.39583"
    PERFORMER "Владимир Михайлович Зазнобин. Видеоархив"
    INDEX 01 97:55:30
  TRACK 404 AUDIO
    TITLE "01:38:11.57635"
    PERFORMER "Владимир Михайлович Зазнобин. Видеоархив"
    INDEX 01 98:11:43
  TRACK 405 AUDIO
    TITLE "01:38:25.06567"
    PERFORMER "Владимир Михайлович Зазнобин. Видеоархив"
    INDEX 01 98:25:05
  TRACK 406 AUDIO
    TITLE "01:38:37.93687"
    PERFORMER "Владимир Михайлович Зазнобин. Видеоархив"
    INDEX 01 98:37:70
  TRACK 407 AUDIO
    TITLE "01:38:53.83041"
    PERFORMER "Владимир Михайлович Зазнобин. Видеоархив"
    INDEX 01 98:53:62
  TRACK 408 AUDIO
    TITLE "01:39:08.90286"
    PERFORMER "Владимир Михайлович Зазнобин. Видеоархив"
    INDEX 01 99:08:68
  TRACK 409 AUDIO
    TITLE "01:39:23.01497"
    PERFORMER "Владимир Михайлович Зазнобин. Видеоархив"
    INDEX 01 99:23:01
  TRACK 410 AUDIO
    TITLE "01:39:35.95907"
    PERFORMER "Владимир Михайлович Зазнобин. Видеоархив"
    INDEX 01 99:35:72
  TRACK 411 AUDIO
    TITLE "01:39:50.60941"
    PERFORMER "Владимир Михайлович Зазнобин. Видеоархив"
    INDEX 01 99:50:46
  TRACK 412 AUDIO
    TITLE "01:40:04.14982"
    PERFORMER "Владимир Михайлович Зазнобин. Видеоархив"
    INDEX 01 100:04:11
  TRACK 413 AUDIO
    TITLE "01:40:17.36839"
    PERFORMER "Владимир Михайлович Зазнобин. Видеоархив"
    INDEX 01 100:17:28
  TRACK 414 AUDIO
    TITLE "01:40:31.02259"
    PERFORMER "Владимир Михайлович Зазнобин. Видеоархив"
    INDEX 01 100:31:02
  TRACK 415 AUDIO
    TITLE "01:40:46.65141"
    PERFORMER "Владимир Михайлович Зазнобин. Видеоархив"
    INDEX 01 100:46:49
  TRACK 416 AUDIO
    TITLE "01:40:59.75714"
    PERFORMER "Владимир Михайлович Зазнобин. Видеоархив"
    INDEX 01 100:59:57
  TRACK 417 AUDIO
    TITLE "01:41:13.52186"
    PERFORMER "Владимир Михайлович Зазнобин. Видеоархив"
    INDEX 01 101:13:39
  TRACK 418 AUDIO
    TITLE "01:41:29.92762"
    PERFORMER "Владимир Михайлович Зазнобин. Видеоархив"
    INDEX 01 101:29:70
  TRACK 419 AUDIO
    TITLE "01:41:45.66277"
    PERFORMER "Владимир Михайлович Зазнобин. Видеоархив"
    INDEX 01 101:45:50
  TRACK 420 AUDIO
    TITLE "01:42:00.71619"
    PERFORMER "Владимир Михайлович Зазнобин. Видеоархив"
    INDEX 01 102:00:54
  TRACK 421 AUDIO
    TITLE "01:42:15.65769"
    PERFORMER "Владимир Михайлович Зазнобин. Видеоархив"
    INDEX 01 102:15:49
  TRACK 422 AUDIO
    TITLE "01:42:30.03449"
    PERFORMER "Владимир Михайлович Зазнобин. Видеоархив"
    INDEX 01 102:30:03
  TRACK 423 AUDIO
    TITLE "01:42:42.82166"
    PERFORMER "Владимир Михайлович Зазнобин. Видеоархив"
    INDEX 01 102:42:62
  TRACK 424 AUDIO
    TITLE "01:42:57.82306"
    PERFORMER "Владимир Михайлович Зазнобин. Видеоархив"
    INDEX 01 102:57:62
  TRACK 425 AUDIO
    TITLE "01:43:12.78639"
    PERFORMER "Владимир Михайлович Зазнобин. Видеоархив"
    INDEX 01 103:12:59
  TRACK 426 AUDIO
    TITLE "01:43:26.92914"
    PERFORMER "Владимир Михайлович Зазнобин. Видеоархив"
    INDEX 01 103:26:70
  TRACK 427 AUDIO
    TITLE "01:43:41.10948"
    PERFORMER "Владимир Михайлович Зазнобин. Видеоархив"
    INDEX 01 103:41:08
  TRACK 428 AUDIO
    TITLE "01:43:54.79478"
    PERFORMER "Владимир Михайлович Зазнобин. Видеоархив"
    INDEX 01 103:54:60
  TRACK 429 AUDIO
    TITLE "01:44:12.59839"
    PERFORMER "Владимир Михайлович Зазнобин. Видеоархив"
    INDEX 01 104:12:45
  TRACK 430 AUDIO
    TITLE "01:44:27.77302"
    PERFORMER "Владимир Михайлович Зазнобин. Видеоархив"
    INDEX 01 104:27:58
  TRACK 431 AUDIO
    TITLE "01:44:41.28091"
    PERFORMER "Владимир Михайлович Зазнобин. Видеоархив"
    INDEX 01 104:41:21
  TRACK 432 AUDIO
    TITLE "01:44:54.83154"
    PERFORMER "Владимир Михайлович Зазнобин. Видеоархив"
    INDEX 01 104:54:62
  TRACK 433 AUDIO
    TITLE "01:45:08.15370"
    PERFORMER "Владимир Михайлович Зазнобин. Видеоархив"
    INDEX 01 105:08:12
  TRACK 434 AUDIO
    TITLE "01:45:21.53156"
    PERFORMER "Владимир Михайлович Зазнобин. Видеоархив"
    INDEX 01 105:21:40
  TRACK 435 AUDIO
    TITLE "01:45:39.38624"
    PERFORMER "Владимир Михайлович Зазнобин. Видеоархив"
    INDEX 01 105:39:29
  TRACK 436 AUDIO
    TITLE "01:45:54.18100"
    PERFORMER "Владимир Михайлович Зазнобин. Видеоархив"
    INDEX 01 105:54:14
  TRACK 437 AUDIO
    TITLE "01:46:07.95408"
    PERFORMER "Владимир Михайлович Зазнобин. Видеоархив"
    INDEX 01 106:07:72
  TRACK 438 AUDIO
    TITLE "01:46:21.18102"
    PERFORMER "Владимир Михайлович Зазнобин. Видеоархив"
    INDEX 01 106:21:14
  TRACK 439 AUDIO
    TITLE "01:46:36.16757"
    PERFORMER "Владимир Михайлович Зазнобин. Видеоархив"
    INDEX 01 106:36:13
  TRACK 440 AUDIO
    TITLE "01:46:50.46029"
    PERFORMER "Владимир Михайлович Зазнобин. Видеоархив"
    INDEX 01 106:50:35
  TRACK 441 AUDIO
    TITLE "01:47:05.40320"
    PERFORMER "Владимир Михайлович Зазнобин. Видеоархив"
    INDEX 01 107:05:30
  TRACK 442 AUDIO
    TITLE "01:47:19.64161"
    PERFORMER "Владимир Михайлович Зазнобин. Видеоархив"
    INDEX 01 107:19:48
  TRACK 443 AUDIO
    TITLE "01:47:36.03156"
    PERFORMER "Владимир Михайлович Зазнобин. Видеоархив"
    INDEX 01 107:36:02
  TRACK 444 AUDIO
    TITLE "01:47:49.81998"
    PERFORMER "Владимир Михайлович Зазнобин. Видеоархив"
    INDEX 01 107:49:61
  TRACK 445 AUDIO
    TITLE "01:48:03.09381"
    PERFORMER "Владимир Михайлович Зазнобин. Видеоархив"
    INDEX 01 108:03:07
  TRACK 446 AUDIO
    TITLE "01:48:15.98036"
    PERFORMER "Владимир Михайлович Зазнобин. Видеоархив"
    INDEX 01 108:15:74
  TRACK 447 AUDIO
    TITLE "01:48:29.14599"
    PERFORMER "Владимир Михайлович Зазнобин. Видеоархив"
    INDEX 01 108:29:11
  TRACK 448 AUDIO
    TITLE "01:48:43.57667"
    PERFORMER "Владимир Михайлович Зазнобин. Видеоархив"
    INDEX 01 108:43:43
  TRACK 449 AUDIO
    TITLE "01:48:57.33209"
    PERFORMER "Владимир Михайлович Зазнобин. Видеоархив"
    INDEX 01 108:57:25
  TRACK 450 AUDIO
    TITLE "01:49:10.11925"
    PERFORMER "Владимир Михайлович Зазнобин. Видеоархив"
    INDEX 01 109:10:09
  TRACK 451 AUDIO
    TITLE "01:49:24.75982"
    PERFORMER "Владимир Михайлович Зазнобин. Видеоархив"
    INDEX 01 109:24:57
  TRACK 452 AUDIO
    TITLE "01:49:38.68429"
    PERFORMER "Владимир Михайлович Зазнобин. Видеоархив"
    INDEX 01 109:38:51
  TRACK 453 AUDIO
    TITLE "01:49:52.26045"
    PERFORMER "Владимир Михайлович Зазнобин. Видеоархив"
    INDEX 01 109:52:20
  TRACK 454 AUDIO
    TITLE "01:50:06.20211"
    PERFORMER "Владимир Михайлович Зазнобин. Видеоархив"
    INDEX 01 110:06:15
  TRACK 455 AUDIO
    TITLE "01:50:21.22535"
    PERFORMER "Владимир Михайлович Зазнобин. Видеоархив"
    INDEX 01 110:21:17
  TRACK 456 AUDIO
    TITLE "01:50:35.35463"
    PERFORMER "Владимир Михайлович Зазнобин. Видеоархив"
    INDEX 01 110:35:27
  TRACK 457 AUDIO
    TITLE "01:50:51.52816"
    PERFORMER "Владимир Михайлович Зазнобин. Видеоархив"
    INDEX 01 110:51:40
  TRACK 458 AUDIO
    TITLE "01:51:04.81039"
    PERFORMER "Владимир Михайлович Зазнобин. Видеоархив"
    INDEX 01 111:04:61
  TRACK 459 AUDIO
    TITLE "01:51:18.60204"
    PERFORMER "Владимир Михайлович Зазнобин. Видеоархив"
    INDEX 01 111:18:45
  TRACK 460 AUDIO
    TITLE "01:51:31.64971"
    PERFORMER "Владимир Михайлович Зазнобин. Видеоархив"
    INDEX 01 111:31:49
  TRACK 461 AUDIO
    TITLE "01:51:45.01227"
    PERFORMER "Владимир Михайлович Зазнобин. Видеоархив"
    INDEX 01 111:45:01
  TRACK 462 AUDIO
    TITLE "01:52:00.94340"
    PERFORMER "Владимир Михайлович Зазнобин. Видеоархив"
    INDEX 01 112:00:71
  TRACK 463 AUDIO
    TITLE "01:52:15.75533"
    PERFORMER "Владимир Михайлович Зазнобин. Видеоархив"
    INDEX 01 112:15:57
  TRACK 464 AUDIO
    TITLE "01:52:29.48615"
    PERFORMER "Владимир Михайлович Зазнобин. Видеоархив"
    INDEX 01 112:29:36
  TRACK 465 AUDIO
    TITLE "01:52:44.43277"
    PERFORMER "Владимир Михайлович Зазнобин. Видеоархив"
    INDEX 01 112:44:32
  TRACK 466 AUDIO
    TITLE "01:52:57.67456"
    PERFORMER "Владимир Михайлович Зазнобин. Видеоархив"
    INDEX 01 112:57:51
  TRACK 467 AUDIO
    TITLE "01:53:10.75383"
    PERFORMER "Владимир Михайлович Зазнобин. Видеоархив"
    INDEX 01 113:10:57
  TRACK 468 AUDIO
    TITLE "01:53:24.24873"
    PERFORMER "Владимир Михайлович Зазнобин. Видеоархив"
    INDEX 01 113:24:19
  TRACK 469 AUDIO
    TITLE "01:53:40.94705"
    PERFORMER "Владимир Михайлович Зазнобин. Видеоархив"
    INDEX 01 113:40:71
  TRACK 470 AUDIO
    TITLE "01:53:54.65093"
    PERFORMER "Владимир Михайлович Зазнобин. Видеоархив"
    INDEX 01 113:54:49
  TRACK 471 AUDIO
    TITLE "01:54:09.09694"
    PERFORMER "Владимир Михайлович Зазнобин. Видеоархив"
    INDEX 01 114:09:07
  TRACK 472 AUDIO
    TITLE "01:54:22.81705"
    PERFORMER "Владимир Михайлович Зазнобин. Видеоархив"
    INDEX 01 114:22:61
  TRACK 473 AUDIO
    TITLE "01:54:37.37218"
    PERFORMER "Владимир Михайлович Зазнобин. Видеоархив"
    INDEX 01 114:37:28
  TRACK 474 AUDIO
    TITLE "01:54:51.98769"
    PERFORMER "Владимир Михайлович Зазнобин. Видеоархив"
    INDEX 01 114:51:74
  TRACK 475 AUDIO
    TITLE "01:55:06.14156"
    PERFORMER "Владимир Михайлович Зазнобин. Видеоархив"
    INDEX 01 115:06:11
  TRACK 476 AUDIO
    TITLE "01:55:23.59732"
    PERFORMER "Владимир Михайлович Зазнобин. Видеоархив"
    INDEX 01 115:23:45
  TRACK 477 AUDIO
    TITLE "01:55:39.13977"
    PERFORMER "Владимир Михайлович Зазнобин. Видеоархив"
    INDEX 01 115:39:10
  TRACK 478 AUDIO
    TITLE "01:55:53.44410"
    PERFORMER "Владимир Михайлович Зазнобин. Видеоархив"
    INDEX 01 115:53:33
  TRACK 479 AUDIO
    TITLE "01:56:07.34628"
    PERFORMER "Владимир Михайлович Зазнобин. Видеоархив"
    INDEX 01 116:07:26
  TRACK 480 AUDIO
    TITLE "01:56:20.56209"
    PERFORMER "Владимир Михайлович Зазнобин. Видеоархив"
    INDEX 01 116:20:42
  TRACK 481 AUDIO
    TITLE "01:56:33.91535"
    PERFORMER "Владимир Михайлович Зазнобин. Видеоархив"
    INDEX 01 116:33:69
  TRACK 482 AUDIO
    TITLE "01:56:48.46397"
    PERFORMER "Владимир Михайлович Зазнобин. Видеоархив"
    INDEX 01 116:48:35
  TRACK 483 AUDIO
    TITLE "01:57:02.70331"
    PERFORMER "Владимир Михайлович Зазнобин. Видеоархив"
    INDEX 01 117:02:53
  TRACK 484 AUDIO
    TITLE "01:57:19.04079"
    PERFORMER "Владимир Михайлович Зазнобин. Видеоархив"
    INDEX 01 117:19:03
  TRACK 485 AUDIO
    TITLE "01:57:34.80660"
    PERFORMER "Владимир Михайлович Зазнобин. Видеоархив"
    INDEX 01 117:34:60
  TRACK 486 AUDIO
    TITLE "01:57:48.22998"
    PERFORMER "Владимир Михайлович Зазнобин. Видеоархив"
    INDEX 01 117:48:17
  TRACK 487 AUDIO
    TITLE "01:58:03.39998"
    PERFORMER "Владимир Михайлович Зазнобин. Видеоархив"
    INDEX 01 118:03:30
  TRACK 488 AUDIO
    TITLE "01:58:17.32723"
    PERFORMER "Владимир Михайлович Зазнобин. Видеоархив"
    INDEX 01 118:17:25
  TRACK 489 AUDIO
    TITLE "01:58:31.98544"
    PERFORMER "Владимир Михайлович Зазнобин. Видеоархив"
    INDEX 01 118:31:74
  TRACK 490 AUDIO
    TITLE "01:58:45.17755"
    PERFORMER "Владимир Михайлович Зазнобин. Видеоархив"
    INDEX 01 118:45:13
  TRACK 491 AUDIO
    TITLE "01:59:01.37247"
    PERFORMER "Владимир Михайлович Зазнобин. Видеоархив"
    INDEX 01 119:01:28
  TRACK 492 AUDIO
    TITLE "01:59:18.80501"
    PERFORMER "Владимир Михайлович Зазнобин. Видеоархив"
    INDEX 01 119:18:60
  TRACK 493 AUDIO
    TITLE "01:59:38.24515"
    PERFORMER "Владимир Михайлович Зазнобин. Видеоархив"
    INDEX 01 119:38:18
  TRACK 494 AUDIO
    TITLE "01:59:51.97272"
    PERFORMER "Владимир Михайлович Зазнобин. Видеоархив"
    INDEX 01 119:51:73
  TRACK 495 AUDIO
    TITLE "02:00:06.50045"
    PERFORMER "Владимир Михайлович Зазнобин. Видеоархив"
    INDEX 01 120:06:38
  TRACK 496 AUDIO
    TITLE "02:00:20.90603"
    PERFORMER "Владимир Михайлович Зазнобин. Видеоархив"
    INDEX 01 120:20:68
  TRACK 497 AUDIO
    TITLE "02:00:34.89458"
    PERFORMER "Владимир Михайлович Зазнобин. Видеоархив"
    INDEX 01 120:34:67
  TRACK 498 AUDIO
    TITLE "02:00:49.20127"
    PERFORMER "Владимир Михайлович Зазнобин. Видеоархив"
    INDEX 01 120:49:15
  TRACK 499 AUDIO
    TITLE "02:01:05.67621"
    PERFORMER "Владимир Михайлович Зазнобин. Видеоархив"
    INDEX 01 121:05:51
  TRACK 500 AUDIO
    TITLE "02:01:20.50116"
    PERFORMER "Владимир Михайлович Зазнобин. Видеоархив"
    INDEX 01 121:20:38
  TRACK 501 AUDIO
    TITLE "02:01:33.99558"
    PERFORMER "Владимир Михайлович Зазнобин. Видеоархив"
    INDEX 01 121:34:00
  TRACK 502 AUDIO
    TITLE "02:01:48.81728"
    PERFORMER "Владимир Михайлович Зазнобин. Видеоархив"
    INDEX 01 121:48:61
  TRACK 503 AUDIO
    TITLE "02:02:03.34036"
    PERFORMER "Владимир Михайлович Зазнобин. Видеоархив"
    INDEX 01 122:03:26
  TRACK 504 AUDIO
    TITLE "02:02:16.96156"
    PERFORMER "Владимир Михайлович Зазнобин. Видеоархив"
    INDEX 01 122:16:72
  TRACK 505 AUDIO
    TITLE "02:02:30.22426"
    PERFORMER "Владимир Михайлович Зазнобин. Видеоархив"
    INDEX 01 122:30:17
  TRACK 506 AUDIO
    TITLE "02:02:44.16825"
    PERFORMER "Владимир Михайлович Зазнобин. Видеоархив"
    INDEX 01 122:44:13
  TRACK 507 AUDIO
    TITLE "02:02:58.37739"
    PERFORMER "Владимир Михайлович Зазнобин. Видеоархив"
    INDEX 01 122:58:28
  TRACK 508 AUDIO
    TITLE "02:03:12.00930"
    PERFORMER "Владимир Михайлович Зазнобин. Видеоархив"
    INDEX 01 123:12:01
  TRACK 509 AUDIO
    TITLE "02:03:28.72667"
    PERFORMER "Владимир Михайлович Зазнобин. Видеоархив"
    INDEX 01 123:28:55
  TRACK 510 AUDIO
    TITLE "02:03:43.24138"
    PERFORMER "Владимир Михайлович Зазнобин. Видеоархив"
    INDEX 01 123:43:18
  TRACK 511 AUDIO
    TITLE "02:03:56.94805"
    PERFORMER "Владимир Михайлович Зазнобин. Видеоархив"
    INDEX 01 123:56:71
  TRACK 512 AUDIO
    TITLE "02:04:10.81029"
    PERFORMER "Владимир Михайлович Зазнобин. Видеоархив"
    INDEX 01 124:10:61
  TRACK 513 AUDIO
    TITLE "02:04:26.33322"
    PERFORMER "Владимир Михайлович Зазнобин. Видеоархив"
    INDEX 01 124:26:25
  TRACK 514 AUDIO
    TITLE "02:04:39.75243"
    PERFORMER "Владимир Михайлович Зазнобин. Видеоархив"
    INDEX 01 124:39:56
  TRACK 515 AUDIO
    TITLE "02:04:53.07921"
    PERFORMER "Владимир Михайлович Зазнобин. Видеоархив"
    INDEX 01 124:53:06
  TRACK 516 AUDIO
    TITLE "02:05:07.60460"
    PERFORMER "Владимир Михайлович Зазнобин. Видеоархив"
    INDEX 01 125:07:45
  TRACK 517 AUDIO
    TITLE "02:05:20.77442"
    PERFORMER "Владимир Михайлович Зазнобин. Видеоархив"
    INDEX 01 125:20:58
  TRACK 518 AUDIO
    TITLE "02:05:34.93574"
    PERFORMER "Владимир Михайлович Зазнобин. Видеоархив"
    INDEX 01 125:34:70
  TRACK 519 AUDIO
    TITLE "02:05:48.37261"
    PERFORMER "Владимир Михайлович Зазнобин. Видеоархив"
    INDEX 01 125:48:28
  TRACK 520 AUDIO
    TITLE "02:06:01.69705"
    PERFORMER "Владимир Михайлович Зазнобин. Видеоархив"
    INDEX 01 126:01:52
  TRACK 521 AUDIO
    TITLE "02:06:17.77125"
    PERFORMER "Владимир Михайлович Зазнобин. Видеоархив"
    INDEX 01 126:17:58
  TRACK 522 AUDIO
    TITLE "02:06:31.83828"
    PERFORMER "Владимир Михайлович Зазнобин. Видеоархив"
    INDEX 01 126:31:63
  TRACK 523 AUDIO
    TITLE "02:06:45.12327"
    PERFORMER "Владимир Михайлович Зазнобин. Видеоархив"
    INDEX 01 126:45:09
  TRACK 524 AUDIO
    TITLE "02:07:01.28522"
    PERFORMER "Владимир Михайлович Зазнобин. Видеоархив"
    INDEX 01 127:01:21
  TRACK 525 AUDIO
    TITLE "02:07:14.83306"
    PERFORMER "Владимир Михайлович Зазнобин. Видеоархив"
    INDEX 01 127:14:62
  TRACK 526 AUDIO
    TITLE "02:07:27.91000"
    PERFORMER "Владимир Михайлович Зазнобин. Видеоархив"
    INDEX 01 127:27:68
  TRACK 527 AUDIO
    TITLE "02:07:40.99576"
    PERFORMER "Владимир Михайлович Зазнобин. Видеоархив"
    INDEX 01 127:41:00
  TRACK 528 AUDIO
    TITLE "02:07:55.81977"
    PERFORMER "Владимир Михайлович Зазнобин. Видеоархив"
    INDEX 01 127:55:61
  TRACK 529 AUDIO
    TITLE "02:08:12.16748"
    PERFORMER "Владимир Михайлович Зазнобин. Видеоархив"
    INDEX 01 128:12:13
  TRACK 530 AUDIO
    TITLE "02:08:25.05633"
    PERFORMER "Владимир Михайлович Зазнобин. Видеоархив"
    INDEX 01 128:25:04
  TRACK 531 AUDIO
    TITLE "02:08:41.25868"
    PERFORMER "Владимир Михайлович Зазнобин. Видеоархив"
    INDEX 01 128:41:19
  TRACK 532 AUDIO
    TITLE "02:08:58.39959"
    PERFORMER "Владимир Михайлович Зазнобин. Видеоархив"
    INDEX 01 128:58:30
  TRACK 533 AUDIO
    TITLE "02:09:13.42515"
    PERFORMER "Владимир Михайлович Зазнобин. Видеоархив"
    INDEX 01 129:13:32
  TRACK 534 AUDIO
    TITLE "02:09:27.46154"
    PERFORMER "Владимир Михайлович Зазнобин. Видеоархив"
    INDEX 01 129:27:35
  TRACK 535 AUDIO
    TITLE "02:09:41.35952"
    PERFORMER "Владимир Михайлович Зазнобин. Видеоархив"
    INDEX 01 129:41:27
  TRACK 536 AUDIO
    TITLE "02:09:54.65057"
    PERFORMER "Владимир Михайлович Зазнобин. Видеоархив"
    INDEX 01 129:54:49
  TRACK 537 AUDIO
    TITLE "02:10:08.81791"
    PERFORMER "Владимир Михайлович Зазнобин. Видеоархив"
    INDEX 01 130:08:61
  TRACK 538 AUDIO
    TITLE "02:10:22.67134"
    PERFORMER "Владимир Михайлович Зазнобин. Видеоархив"
    INDEX 01 130:22:50
  TRACK 539 AUDIO
    TITLE "02:10:38.72692"
    PERFORMER "Владимир Михайлович Зазнобин. Видеоархив"
    INDEX 01 130:38:55
  TRACK 540 AUDIO
    TITLE "02:10:51.63762"
    PERFORMER "Владимир Михайлович Зазнобин. Видеоархив"
    INDEX 01 130:51:48
  TRACK 541 AUDIO
    TITLE "02:11:04.45587"
    PERFORMER "Владимир Михайлович Зазнобин. Видеоархив"
    INDEX 01 131:04:34
  TRACK 542 AUDIO
    TITLE "02:11:19.67603"
    PERFORMER "Владимир Михайлович Зазнобин. Видеоархив"
    INDEX 01 131:19:51
  TRACK 543 AUDIO
    TITLE "02:11:33.99107"
    PERFORMER "Владимир Михайлович Зазнобин. Видеоархив"
    INDEX 01 131:33:74
  TRACK 544 AUDIO
    TITLE "02:11:47.05034"
    PERFORMER "Владимир Михайлович Зазнобин. Видеоархив"
    INDEX 01 131:47:04
  TRACK 545 AUDIO
    TITLE "02:12:02.07871"
    PERFORMER "Владимир Михайлович Зазнобин. Видеоархив"
    INDEX 01 132:02:06
  TRACK 546 AUDIO
    TITLE "02:12:15.91585"
    PERFORMER "Владимир Михайлович Зазнобин. Видеоархив"
    INDEX 01 132:15:69
  TRACK 547 AUDIO
    TITLE "02:12:29.13397"
    PERFORMER "Владимир Михайлович Зазнобин. Видеоархив"
    INDEX 01 132:29:10
  TRACK 548 AUDIO
    TITLE "02:12:43.99608"
    PERFORMER "Владимир Михайлович Зазнобин. Видеоархив"
    INDEX 01 132:44:00
  TRACK 549 AUDIO
    TITLE "02:12:59.56544"
    PERFORMER "Владимир Михайлович Зазнобин. Видеоархив"
    INDEX 01 132:59:42
  TRACK 550 AUDIO
    TITLE "02:13:14.24735"
    PERFORMER "Владимир Михайлович Зазнобин. Видеоархив"
    INDEX 01 133:14:19
  TRACK 551 AUDIO
    TITLE "02:13:27.76454"
    PERFORMER "Владимир Михайлович Зазнобин. Видеоархив"
    INDEX 01 133:27:57
  TRACK 552 AUDIO
    TITLE "02:13:42.35635"
    PERFORMER "Владимир Михайлович Зазнобин. Видеоархив"
    INDEX 01 133:42:27
  TRACK 553 AUDIO
    TITLE "02:13:58.45422"
    PERFORMER "Владимир Михайлович Зазнобин. Видеоархив"
    INDEX 01 133:58:34
  TRACK 554 AUDIO
    TITLE "02:14:12.22311"
    PERFORMER "Владимир Михайлович Зазнобин. Видеоархив"
    INDEX 01 134:12:17
  TRACK 555 AUDIO
    TITLE "02:14:25.52993"
    PERFORMER "Владимир Михайлович Зазнобин. Видеоархив"
    INDEX 01 134:25:40
  TRACK 556 AUDIO
    TITLE "02:14:38.62034"
    PERFORMER "Владимир Михайлович Зазнобин. Видеоархив"
    INDEX 01 134:38:47
  TRACK 557 AUDIO
    TITLE "02:14:54.05782"
    PERFORMER "Владимир Михайлович Зазнобин. Видеоархив"
    INDEX 01 134:54:04
  TRACK 558 AUDIO
    TITLE "02:15:09.26773"
    PERFORMER "Владимир Михайлович Зазнобин. Видеоархив"
    INDEX 01 135:09:20
  TRACK 559 AUDIO
    TITLE "02:15:23.91714"
    PERFORMER "Владимир Михайлович Зазнобин. Видеоархив"
    INDEX 01 135:23:69
  TRACK 560 AUDIO
    TITLE "02:15:36.95646"
    PERFORMER "Владимир Михайлович Зазнобин. Видеоархив"
    INDEX 01 135:36:72
  TRACK 561 AUDIO
    TITLE "02:15:51.33141"
    PERFORMER "Владимир Михайлович Зазнобин. Видеоархив"
    INDEX 01 135:51:25
  TRACK 562 AUDIO
    TITLE "02:16:04.93914"
    PERFORMER "Владимир Михайлович Зазнобин. Видеоархив"
    INDEX 01 136:04:70
  TRACK 563 AUDIO
    TITLE "02:16:20.20760"
    PERFORMER "Владимир Михайлович Зазнобин. Видеоархив"
    INDEX 01 136:20:16
  TRACK 564 AUDIO
    TITLE "02:16:34.19569"
    PERFORMER "Владимир Михайлович Зазнобин. Видеоархив"
    INDEX 01 136:34:15
  TRACK 565 AUDIO
    TITLE "02:16:49.23703"
    PERFORMER "Владимир Михайлович Зазнобин. Видеоархив"
    INDEX 01 136:49:18
  TRACK 566 AUDIO
    TITLE "02:17:03.29803"
    PERFORMER "Владимир Михайлович Зазнобин. Видеоархив"
    INDEX 01 137:03:22
  TRACK 567 AUDIO
    TITLE "02:17:19.97036"
    PERFORMER "Владимир Михайлович Зазнобин. Видеоархив"
    INDEX 01 137:19:73
  TRACK 568 AUDIO
    TITLE "02:17:33.44993"
    PERFORMER "Владимир Михайлович Зазнобин. Видеоархив"
    INDEX 01 137:33:34
  TRACK 569 AUDIO
    TITLE "02:17:46.60397"
    PERFORMER "Владимир Михайлович Зазнобин. Видеоархив"
    INDEX 01 137:46:45
  TRACK 570 AUDIO
    TITLE "02:17:59.94422"
    PERFORMER "Владимир Михайлович Зазнобин. Видеоархив"
    INDEX 01 137:59:71
  TRACK 571 AUDIO
    TITLE "02:18:13.55846"
    PERFORMER "Владимир Михайлович Зазнобин. Видеоархив"
    INDEX 01 138:13:42
